<svg width="141" height="25" viewBox="0 0 141 25" fill="none" xmlns="http://www.w3.org/2000/svg">
<g clip-path="url(#clip0_629_17034)">
<path d="M29.6953 19.9092V5.55029H37.2226C39.3282 5.55029 41.9008 6.47877 41.754 8.89281C41.6047 10.8821 38.9889 11.4461 37.3501 11.4461C39.9034 11.6109 42.1992 12.9433 42.1992 15.6521C42.1992 18.8507 40.1801 19.9185 37.2226 19.9185L29.6953 19.9092ZM32.056 11.4369H36.8833C38.2646 11.4369 39.4991 10.6987 39.4991 9.44761C39.4991 8.13378 38.3296 7.59062 36.8833 7.59062H32.056V11.4369ZM32.056 13.4052V17.8573H37.0325C38.717 17.8573 39.7975 17.3443 39.7975 15.5593C39.7975 14.0621 38.5943 13.4052 37.0325 13.4052H32.056Z" fill="white"/>
<path d="M42.5938 14.8904C42.5938 11.2995 44.6778 9.56787 48.2513 9.56787C51.8874 9.56787 54.0773 11.3924 54.0773 14.9067V15.5844H44.8269C44.8269 17.3067 46.3165 18.2724 48.3788 18.2724C50.2703 18.2724 51.4182 17.6364 51.7166 16.5268H53.904C53.3963 19.0848 51.4398 20.1618 48.3355 20.1618C44.8269 20.1618 42.5938 18.2933 42.5938 14.8904ZM51.7816 14.1105C51.7816 12.4276 50.097 11.4852 48.273 11.4852C46.4489 11.4852 44.8053 12.2233 44.8053 14.0896L51.7816 14.1105Z" fill="white"/>
<path d="M61.2833 9.83756H62.2821V11.785H58.3283V16.114C58.3283 17.0774 58.6893 17.7761 59.7095 17.7761H62.2821V19.9092H59.0069C57.0312 19.9092 55.9868 18.6163 55.9868 16.5643V11.785H53.7344V9.83756H60.3954C57.397 9.83756 55.9723 9.7958 55.9723 6.90355V5.55029H58.3114V8.03165C58.3066 9.42672 59.262 9.83756 61.2833 9.83756Z" fill="white"/>
<path d="M69.7248 9.83756H70.7234V11.785H66.7696V16.114C66.7696 17.0774 67.1306 17.7761 68.1509 17.7761H70.7234V19.9092H67.4483C65.4726 19.9092 64.4282 18.6163 64.4282 16.5643V11.785H62.1758V9.83756H68.8247C65.8263 9.83756 64.4017 9.7958 64.4017 6.90355V5.55029H66.7408V8.03165C66.748 9.42672 67.7034 9.83756 69.7248 9.83756Z" fill="white"/>
<path d="M70.7109 14.8926C70.7109 11.3017 72.7949 9.57935 76.366 9.57935C80.0021 9.57935 82.1941 11.4038 82.1941 14.9181V15.5959H72.9441C72.9441 17.3182 74.4313 18.2839 76.4936 18.2839C78.3871 18.2839 79.5351 17.6478 79.8333 16.5383H82.0238C81.5138 19.087 79.5567 20.164 76.4526 20.164C72.9441 20.164 70.7109 18.2955 70.7109 14.8926ZM79.8942 14.1126C79.8942 12.4298 78.2091 11.4874 76.3853 11.4874C74.5612 11.4874 72.9152 12.2255 72.9152 14.0918L79.8942 14.1126Z" fill="white"/>
<path d="M90.1541 11.8298H87.8988C85.4325 11.8298 85.2183 13.3687 85.2183 15.0794V19.9121H82.8359V9.67567H85.1898V13.6751C85.1898 11.275 86.7631 9.65479 88.5923 9.65479H90.1471L90.1541 11.8298Z" fill="white"/>
<path d="M91.5273 19.9092V5.55029H99.0574C101.162 5.55029 103.735 6.47877 103.586 8.89281C103.437 10.8821 100.821 11.4461 99.1845 11.4461C101.736 11.6109 104.034 12.9433 104.034 15.6521C104.034 18.8507 102.012 19.9185 99.0574 19.9185L91.5273 19.9092ZM93.8881 11.4369H98.7153C100.099 11.4369 101.331 10.6987 101.331 9.44761C101.331 8.13378 100.161 7.59062 98.7153 7.59062H93.8881V11.4369ZM93.8881 13.4052V17.8573H98.8647C100.549 17.8573 101.629 17.3443 101.629 15.5593C101.629 14.0621 100.427 13.4052 98.8647 13.4052H93.8881Z" fill="white"/>
<path d="M113.562 10.0961H115.795V19.613H113.562V15.5718C113.562 19.0188 110.796 19.9217 109.244 19.9217C107.885 19.9217 104.609 19.49 104.609 15.6554V10.0845H106.848V15.1911C106.848 16.9065 108.097 17.9301 109.925 17.9301C111.838 17.9301 113.562 16.925 113.562 15.2027V10.0961Z" fill="white"/>
<path d="M126.454 9.66306H128.792V18.7505C128.792 22.0003 126.627 24.022 122.986 24.022H118.64V22.0119H123.02C125.274 22.0119 126.444 21.0067 126.444 18.7621V15.7956C125.751 19.5699 122.585 20.0179 121.527 20.0179C118.039 20.0179 116.445 17.7408 116.445 14.7674C116.445 11.5177 118.166 9.37061 121.675 9.37061C122.993 9.37061 125.78 9.83481 126.461 13.6184L126.454 9.66306ZM122.457 11.469C120.606 11.469 118.778 12.5553 118.778 14.7905C118.778 16.9052 120.702 17.9706 122.457 17.9706C124.56 17.9706 126.432 16.9238 126.432 14.7905C126.432 12.5553 124.625 11.469 122.457 11.469Z" fill="white"/>
<path d="M131.632 16.6091C131.697 17.8184 133.271 18.1666 135.001 18.1666C136.425 18.1666 138.466 18.025 138.466 16.9364C138.466 16.4443 137.275 15.994 135.894 15.8291L132.896 15.2953C131.108 14.9889 129.406 14.2299 129.406 12.6097C129.406 10.6808 132.003 9.65479 135.001 9.65479C138.04 9.65479 140.339 10.7225 140.339 12.9044H138.19C138.19 11.8181 136.787 11.3446 135.001 11.3446C133.661 11.3446 131.661 11.6116 131.661 12.5562C131.661 13.1296 132.491 13.5196 134.021 13.7169L137.617 14.3529C139.253 14.6198 140.615 15.4392 140.615 16.8551C140.615 19.2343 138.19 19.9121 135.001 19.9121C131.873 19.9121 129.449 18.9465 129.449 16.6091H131.632Z" fill="white"/>
<path d="M11.7697 0.980498C7.78653 0.971855 4.06131 2.88037 1.83841 6.0686C-0.260003 9.06991 1.86969 10.2932 6.35529 10.4046C0.721823 10.2653 -0.625781 12.6121 0.240536 15.6041C1.4967 19.9424 5.63818 23.6122 10.7928 24.0114V7.35686C10.7928 5.66935 10.7928 3.96791 11.7722 3.0255V0.980498H11.7697ZM8.61735 21.24C5.52026 20.3486 2.75045 17.3194 2.75045 14.3065C2.75045 12.1734 5.63818 11.3726 8.61735 11.3726V21.24ZM8.61735 7.21063V9.51092C5.76331 9.51092 2.68307 8.76817 3.46516 7.32204C4.74649 5.11165 6.95727 3.54467 9.52699 3.0255C8.60287 3.91685 8.61735 5.01013 8.61735 7.21063Z" fill="#00DA92"/>
<path d="M11.7734 0.980753V3.02577C12.7577 3.96818 12.7577 5.66962 12.7577 7.35713V24.0187C17.905 23.6194 22.0489 19.9496 23.3027 15.6044C24.1714 12.6053 22.8214 10.2656 17.1879 10.3979C21.6735 10.2865 23.8056 9.06324 21.7072 6.0619C19.4816 2.87628 15.756 0.970615 11.7734 0.980753ZM14.9234 11.3728C17.9146 11.3728 20.7903 12.1736 20.7903 14.3068C20.7903 17.3244 18.0205 20.3419 14.9234 21.2402V11.3728ZM14.0138 3.01649C16.5866 3.53631 18.799 5.10721 20.078 7.32231C20.8625 8.76841 17.7823 9.51117 14.9258 9.51117V7.21089C14.9234 5.01039 14.9403 3.91711 14.0163 3.02577L14.0138 3.01649Z" fill="#00DA92"/>
</g>
<defs>
<clipPath id="clip0_629_17034">
<rect width="141" height="23.0392" fill="white" transform="translate(0 0.980469)"/>
</clipPath>
</defs>
</svg>
