<svg width="152" height="31" viewBox="0 0 152 31" fill="none" xmlns="http://www.w3.org/2000/svg">
<g clip-path="url(#clip0_607_2718)">
<path d="M0 0V24.8721H3.67279V0H0Z" fill="white"/>
<path d="M9.21289 0V3.63422H12.8857V0H9.21289ZM9.21289 6.07101V24.8769H12.8857V6.07101H9.21289Z" fill="white"/>
<path d="M31.7221 8.2454C30.9796 7.46436 30.0834 6.84196 29.0887 6.41652C28.094 5.99108 27.0217 5.77161 25.9381 5.77161C24.8544 5.77161 23.7822 5.99108 22.7874 6.41652C21.7927 6.84196 20.8965 7.46436 20.154 8.2454C19.3641 8.97971 18.7348 9.86648 18.3048 10.8509C17.8749 11.8353 17.6535 12.8966 17.6543 13.969V24.8722H21.3427V13.9732C21.3339 13.0694 21.5988 12.1837 22.1033 11.4302C22.6078 10.6768 23.3288 10.09 24.1733 9.74561C25.0178 9.4012 25.9472 9.3149 26.8418 9.49782C27.7363 9.68075 28.555 10.1245 29.1924 10.772C29.6321 11.1833 29.9815 11.6798 30.2189 12.2305C30.4562 12.7813 30.5765 13.3745 30.5721 13.9732V24.8722H34.2616V13.9732C34.2567 12.8974 34.0288 11.834 33.592 10.8488C33.1552 9.8636 32.5188 8.97753 31.7221 8.2454Z" fill="white"/>
<path d="M53.3868 15.2402C53.4041 16.8953 52.7804 18.4942 51.6435 19.7084C51.0996 20.3112 50.4292 20.7893 49.6792 21.1091C48.9292 21.429 48.1176 21.583 47.3012 21.5603C45.8703 21.5674 44.4827 21.0754 43.382 20.1706L56.3836 11.8062C55.6134 10.0167 54.3345 8.48714 52.7022 7.40331C51.0918 6.32485 49.1889 5.75474 47.2443 5.76815C45.9509 5.74668 44.6668 5.99 43.4729 6.48283C42.279 6.97567 41.2009 7.70739 40.3063 8.63207C39.3796 9.53014 38.6478 10.6058 38.1555 11.7932C37.6632 12.9806 37.4208 14.2549 37.4431 15.5382C37.4186 16.8175 37.663 18.0879 38.1609 19.2688C38.6588 20.4497 39.3992 21.5153 40.3352 22.3981C41.2483 23.305 42.3373 24.0198 43.5367 24.4996C44.7361 24.9795 46.0212 25.2144 47.3147 25.1903C48.6177 25.2183 49.9121 24.974 51.1133 24.4734C52.3145 23.9728 53.3954 23.2271 54.2855 22.2849C55.2031 21.3555 55.9263 20.2559 56.4133 19.0493C56.9004 17.8426 57.1419 16.5527 57.124 15.2535L53.3868 15.2402ZM41.1368 15.5345C41.1254 14.7355 41.2773 13.9425 41.5834 13.2031C41.8894 12.4637 42.3432 11.793 42.9176 11.2314C43.4715 10.6448 44.1432 10.1792 44.8896 9.86445C45.636 9.54974 46.4406 9.39289 47.2519 9.40396C48.6858 9.40033 50.0758 9.89351 51.1807 10.7979L41.3886 17.0788C41.2323 16.5783 41.1476 16.0582 41.1368 15.5345Z" fill="white"/>
<path d="M76.3342 8.63368C75.4248 7.72669 74.3429 7.0068 73.1509 6.51554C71.9589 6.02428 70.6804 5.77136 69.3892 5.77136C68.0979 5.77136 66.8195 6.02428 65.6275 6.51554C64.4355 7.0068 63.3536 7.72669 62.4441 8.63368C61.5135 9.51916 60.7767 10.5843 60.2792 11.7631C59.7817 12.942 59.5342 14.2093 59.552 15.4867C59.532 16.7497 59.7673 18.0038 60.244 19.1756C60.7208 20.3473 61.4294 21.413 62.3281 22.3099C63.1747 23.1905 64.1883 23.8973 65.3111 24.3899C66.4339 24.8826 67.6438 25.1514 68.8717 25.181C70.0996 25.2106 71.3213 25.0004 72.467 24.5625C73.6127 24.1245 74.6599 23.4674 75.5488 22.6287V24.8732H79.2382V15.4702C79.251 14.195 78.9999 12.9308 78.5004 11.7552C78.0009 10.5797 77.2635 9.51774 76.3337 8.63474L76.3342 8.63368ZM73.7272 19.7818C72.8675 20.6287 71.7737 21.2049 70.5836 21.4377C69.3934 21.6704 68.1603 21.5493 67.0397 21.0896C65.919 20.6299 64.961 19.8522 64.2864 18.8545C63.6118 17.8568 63.2508 16.6839 63.2489 15.4835C63.2393 14.6878 63.3945 13.8986 63.7051 13.1645C64.0156 12.4305 64.4748 11.7672 65.0544 11.2155C65.623 10.647 66.2995 10.1953 67.0451 9.88632C67.7907 9.57735 68.5907 9.41723 69.399 9.41515C70.2073 9.41307 71.0081 9.56908 71.7553 9.8742C72.5025 10.1793 73.1814 10.6276 73.753 11.1931C74.3246 11.7587 74.7775 12.4305 75.0859 13.1698C75.3943 13.9092 75.5519 14.7016 75.5498 15.5014C75.5477 16.3012 75.3859 17.0928 75.0737 17.8305C74.7614 18.5683 74.3049 19.2377 73.7304 19.8004L73.7272 19.7818Z" fill="white"/>
<path d="M85.7783 8.20873C84.959 8.9327 84.3056 9.82153 83.8617 10.8157C83.4178 11.8099 83.1937 12.8864 83.2045 13.9732V24.8721H86.8939V13.9732C86.8756 13.3566 86.9954 12.7436 87.2448 12.1782C87.4941 11.6128 87.8667 11.109 88.336 10.7029C89.2802 9.8404 90.5259 9.37434 91.8106 9.40296V5.77246C89.5556 5.77365 87.39 6.64811 85.7783 8.20873Z" fill="white"/>
<path d="M95.0244 0V24.8721H98.6972V0H95.0244Z" fill="white"/>
<path d="M120.937 12.5086C121.219 12.0362 121.562 11.6019 121.957 11.2166C122.522 10.6448 123.197 10.1904 123.942 9.88019C124.687 9.56998 125.487 9.41018 126.295 9.41018C127.103 9.41018 127.903 9.56998 128.648 9.88019C129.393 10.1904 130.068 10.6448 130.633 11.2166C131.015 11.5901 131.347 12.0106 131.62 12.4677C131.967 11.2541 132.535 10.1138 133.297 9.10334L133.471 8.87012L133.239 8.63319C132.33 7.7262 131.248 7.00632 130.056 6.51506C128.864 6.0238 127.586 5.77087 126.294 5.77087C125.003 5.77087 123.725 6.0238 122.533 6.51506C121.341 7.00632 120.259 7.7262 119.349 8.63319C119.258 8.72314 119.172 8.8131 119.089 8.90306L119.262 9.13999C120.022 10.1531 120.59 11.2946 120.937 12.5086Z" fill="white"/>
<path d="M149.176 8.63425C148.268 7.72775 147.188 7.00822 145.997 6.51718C144.806 6.02613 143.529 5.77332 142.239 5.77332C140.95 5.77332 139.672 6.02613 138.482 6.51718C137.291 7.00822 136.211 7.72775 135.303 8.63425C135.224 8.71181 135.146 8.79362 135.071 8.87543C134.787 9.17104 134.52 9.48364 134.274 9.81147C133.981 10.1991 133.72 10.6093 133.493 11.0381C133.419 11.1773 133.353 11.3202 133.287 11.4472C133.22 11.5803 133.161 11.7169 133.109 11.8562C133.043 12.0321 132.977 12.2036 132.915 12.3795C132.852 12.5553 132.828 12.6536 132.786 12.7885C132.775 12.8498 132.758 12.91 132.737 12.9686L132.622 13.4345C132.612 13.5213 132.597 13.6074 132.576 13.6922C132.564 13.782 132.53 13.9254 132.514 14.0481C132.498 14.1708 132.473 14.3955 132.46 14.5714C132.448 14.7472 132.427 14.9475 132.423 15.1398V15.9452C132.351 17.0965 131.929 18.1994 131.213 19.1092C131.033 19.3429 130.838 19.5654 130.63 19.7754C130.068 20.3499 129.392 20.8041 128.645 21.11C127.899 21.4159 127.096 21.567 126.288 21.554C125.452 21.563 124.623 21.3987 123.854 21.0716L123.764 21.035C123.09 20.7271 122.478 20.3005 121.958 19.7759C121.755 19.5764 121.566 19.3634 121.392 19.1385C121.322 19.0524 121.26 18.9547 121.194 18.8564C120.445 17.6783 120.065 16.307 120.103 14.9156C120.137 14.4774 120.082 14.037 119.942 13.6199C119.807 12.8706 119.577 12.1412 119.256 11.4493C119.256 11.4493 119.182 11.2814 119.025 11.0078L118.988 10.934C118.778 10.5555 118.543 10.1908 118.286 9.84229C118.038 9.51151 117.773 9.19358 117.492 8.88977C117.41 8.79999 117.323 8.71393 117.232 8.62415C116.932 8.3331 116.615 8.06008 116.282 7.80657C116.133 7.69236 115.98 7.57761 115.819 7.46711C115.658 7.35661 115.488 7.23815 115.31 7.1319L115.273 7.11171H115.251C115.189 7.07249 115.124 7.03701 115.057 7.00546C113.19 5.98131 111.036 5.5869 108.922 5.88193C106.808 6.17697 104.848 7.14538 103.34 8.64062C102.411 9.52699 101.675 10.5923 101.177 11.7709C100.68 12.9495 100.432 14.2165 100.448 15.4936C100.456 17.4122 101.037 19.2856 102.118 20.8783C103.199 22.471 104.732 23.7119 106.523 24.445C108.315 25.1782 110.286 25.3708 112.188 24.9986C114.09 24.6265 115.839 23.7062 117.214 22.3535C117.305 22.2636 117.391 22.1736 117.474 22.0837L117.301 21.8504C116.545 20.8359 115.985 19.6926 115.648 18.4776C115.363 18.9566 115.018 19.3976 114.619 19.7898C113.762 20.6457 112.667 21.2303 111.473 21.4693C110.279 21.7084 109.04 21.591 107.914 21.1322C106.787 20.6734 105.824 19.8938 105.146 18.8923C104.468 17.8909 104.107 16.7127 104.107 15.5074C104.107 14.3021 104.468 13.124 105.146 12.1226C105.824 11.1211 106.787 10.3415 107.914 9.88269C109.04 9.42387 110.279 9.30651 111.473 9.54552C112.667 9.78453 113.762 10.3691 114.619 11.2251C114.83 11.4343 115.026 11.6568 115.206 11.8913C115.345 12.0749 115.473 12.2659 115.591 12.4634V12.5086C116.113 13.5795 116.395 14.7494 116.417 15.9383C116.422 16.0535 116.436 16.1682 116.458 16.2815C116.515 17.1188 116.689 17.9442 116.975 18.7342C116.982 18.7972 117.005 18.8576 117.041 18.91V18.9467C117.107 19.1183 117.181 19.2941 117.26 19.462C117.258 19.4729 117.258 19.484 117.26 19.4949C117.343 19.6639 117.429 19.8316 117.52 19.998C117.649 20.2312 117.789 20.4602 117.934 20.6849C118.772 22.0743 119.983 23.2063 121.433 23.9552H121.491C122.98 24.7393 124.645 25.1398 126.331 25.1198C128.018 25.0999 129.672 24.6601 131.142 23.841C131.566 23.5988 131.97 23.3255 132.353 23.0234C132.643 22.802 132.919 22.563 133.179 22.3078C133.294 22.1936 133.406 22.0789 133.513 21.9604C133.621 21.8419 133.728 21.7235 133.827 21.6045C134.013 21.3962 134.183 21.171 134.344 20.9505C134.475 20.7754 134.595 20.5925 134.703 20.4028C134.765 20.3088 134.823 20.2105 134.881 20.1085C134.939 20.0065 135.025 19.8466 135.091 19.6995C135.157 19.5523 135.191 19.5034 135.236 19.4009C135.295 19.2811 135.347 19.1582 135.392 19.0327C135.436 18.9326 135.475 18.8303 135.508 18.7262C135.547 18.6435 135.577 18.5572 135.599 18.4686C135.632 18.3788 135.66 18.2885 135.686 18.1944C135.687 18.1823 135.687 18.1699 135.686 18.1578C135.714 18.0595 135.739 17.9697 135.764 17.8757C135.789 17.7817 135.793 17.7408 135.813 17.6754C135.831 17.611 135.845 17.5455 135.855 17.4794C135.884 17.3402 135.908 17.2016 135.929 17.0703C135.949 16.9391 135.974 16.7925 135.987 16.6613C135.999 16.5301 136.02 16.3792 136.032 16.2522C136.045 16.1253 136.032 15.9622 136.057 15.8187C136.069 15.7006 136.069 15.5815 136.057 15.4633V15.1159C136.095 14.1705 136.369 13.2492 136.854 12.4342C137.129 11.9862 137.459 11.5741 137.838 11.2076C138.696 10.3586 139.789 9.78041 140.979 9.54617C142.169 9.31192 143.403 9.43213 144.524 9.89158C145.645 10.351 146.603 11.1291 147.277 12.1274C147.951 13.1257 148.311 14.2994 148.311 15.5C148.311 16.7006 147.951 17.8743 147.277 18.8726C146.603 19.8709 145.645 20.649 144.524 21.1084C143.403 21.5679 142.169 21.6881 140.979 21.4538C139.789 21.2196 138.696 20.6414 137.838 19.7924C137.462 19.424 137.131 19.0122 136.854 18.5658C136.728 19.0081 136.571 19.441 136.383 19.8615C135.816 21.1173 135.015 22.256 134.021 23.2179C133.734 23.5119 133.426 23.7852 133.1 24.0354L132.352 24.6198V30.9947H136.046V22.6282C136.931 23.4643 137.974 24.1195 139.115 24.5561C140.256 24.9927 141.473 25.2023 142.696 25.1726C143.919 25.143 145.124 24.8749 146.243 24.3836C147.361 23.8922 148.37 23.1874 149.213 22.3094C150.113 21.4125 150.823 20.3467 151.301 19.1745C151.78 18.0024 152.016 16.7475 151.998 15.4835C152.023 14.2114 151.786 12.9476 151.301 11.7693C150.816 10.591 150.093 9.52299 149.176 8.63053V8.63425Z" fill="white"/>
</g>
<defs>
<clipPath id="clip0_607_2718">
<rect width="152" height="31" fill="white"/>
</clipPath>
</defs>
</svg>
