<svg width="140" height="26" viewBox="0 0 140 26" fill="none" xmlns="http://www.w3.org/2000/svg">
<g clip-path="url(#clip0_640_17340)">
<path d="M63.8935 3.53254C64.1037 3.54249 64.3097 3.59433 64.4989 3.6849C64.4989 3.08885 63.9038 2.60498 63.1705 2.60498C62.4372 2.60498 61.8438 3.05202 61.8438 3.64806C62.0309 3.74615 62.2374 3.80327 62.4491 3.81549C62.7441 3.81549 63.5934 3.53254 63.8935 3.53254Z" fill="white"/>
<path d="M62.4491 3.89428C62.2389 3.88433 62.0329 3.83249 61.8438 3.74192C61.8438 4.33797 62.4372 4.82184 63.1705 4.82184C63.9038 4.82184 64.4989 4.36308 64.4989 3.76704C64.3099 3.67553 64.104 3.62256 63.8935 3.61133C63.607 3.61133 62.7544 3.89428 62.4491 3.89428ZM77.6178 9.63039C77.3811 9.63974 77.1489 9.69673 76.9357 9.79782C76.9357 9.1281 77.5973 8.59568 78.4124 8.59568C79.2276 8.59568 79.8909 9.09797 79.8909 9.75764C79.68 9.86753 79.4472 9.93096 79.2088 9.94348C78.8967 9.94516 77.9503 9.63039 77.6178 9.63039Z" fill="white"/>
<path d="M79.2263 10.0339C79.4629 10.0246 79.6951 9.96758 79.9084 9.86649C79.9084 10.5362 79.2468 11.0686 78.4299 11.0686C77.6131 11.0686 76.9531 10.5663 76.9531 9.89663C77.1664 9.79537 77.3986 9.73837 77.6352 9.7292C77.9456 9.71079 78.892 10.0339 79.2263 10.0339ZM78.0428 1.46157C77.8764 1.46956 77.7134 1.51057 77.5636 1.58212C77.5636 1.10997 78.0343 0.726562 78.6158 0.726562C79.1973 0.726562 79.6697 1.08151 79.6697 1.55366C79.5217 1.63182 79.3582 1.67752 79.1905 1.6876C78.9551 1.6876 78.2816 1.46157 78.0428 1.46157Z" fill="white"/>
<path d="M79.1933 1.74947C79.3596 1.74148 79.5227 1.70047 79.6725 1.62892C79.6725 2.10107 79.2001 2.48448 78.6186 2.48448C78.0371 2.48448 77.5664 2.12116 77.5664 1.64733C77.7159 1.57453 77.879 1.53238 78.0456 1.52344C78.2758 1.52511 78.9579 1.74947 79.1933 1.74947ZM85.3016 2.29528C85.1204 2.26757 84.9352 2.27668 84.7577 2.32207C84.8634 1.81979 85.4568 1.5 86.0844 1.62389C86.7119 1.74779 87.1417 2.23501 87.0359 2.74567C86.8583 2.79652 86.6717 2.80964 86.4885 2.78418C86.2362 2.73395 85.5591 2.34384 85.3016 2.29528Z" fill="white"/>
<path d="M86.4718 2.84603C86.6533 2.87254 86.8383 2.86286 87.0158 2.81756C86.9101 3.32822 86.3167 3.64131 85.6891 3.51574C85.0616 3.39017 84.6335 2.89625 84.7393 2.3856C84.9172 2.33951 85.1028 2.32926 85.285 2.35546C85.5373 2.41239 86.2143 2.80082 86.4718 2.84603ZM80.3771 7.56417C80.1409 7.63185 79.921 7.74576 79.7308 7.89902C79.5603 7.21926 80.0974 6.50267 80.933 6.2984C81.7686 6.09414 82.5769 6.43904 82.7492 7.11881C82.5634 7.28231 82.3442 7.40503 82.1063 7.47878C81.7703 7.56751 80.7182 7.48045 80.3771 7.56417Z" fill="white"/>
<path d="M82.131 7.57439C82.3673 7.50696 82.5872 7.39303 82.7773 7.23953C82.9478 7.91929 82.4106 8.63589 81.575 8.84015C80.7394 9.04441 79.9277 8.68779 79.7555 8.003C79.9442 7.84579 80.1635 7.72788 80.4001 7.65643C80.7377 7.57104 81.7882 7.6581 82.131 7.57439ZM77.0799 5.70588C76.8842 5.8299 76.7146 5.98961 76.5802 6.17636C76.263 5.64728 76.5802 4.89051 77.2811 4.48365C77.982 4.0768 78.792 4.1488 79.1075 4.67117C78.978 4.86337 78.8104 5.02794 78.6146 5.15504C78.3316 5.31912 77.3664 5.53845 77.0799 5.70588Z" fill="white"/>
<path d="M78.6594 5.2236C78.8546 5.09903 79.0242 4.93941 79.1591 4.75312C79.4746 5.2822 79.1591 6.03897 78.4582 6.44582C77.7573 6.85268 76.9405 6.78068 76.625 6.24826C76.7582 6.06078 76.9267 5.89997 77.1212 5.77444C77.406 5.61036 78.3712 5.39102 78.6594 5.2236ZM82.3838 3.82389C82.1662 3.74188 81.9348 3.70098 81.7017 3.70334C81.9507 3.14246 82.759 2.94657 83.5076 3.26635C84.2562 3.58614 84.6757 4.27093 84.4267 4.82846C84.1944 4.83765 83.9625 4.80122 83.7446 4.72131C83.4377 4.59239 82.689 3.95449 82.3838 3.82389Z" fill="white"/>
<path d="M83.7073 4.79666C83.9249 4.87891 84.1563 4.91982 84.3894 4.91721C84.1405 5.4781 83.3321 5.67399 82.5835 5.3542C81.8349 5.03441 81.4205 4.34963 81.6695 3.78205C81.9024 3.77833 82.1338 3.81811 82.3516 3.89925C82.6517 4.02817 83.4004 4.66607 83.7073 4.79666ZM81.8213 1.25052C81.6034 1.33103 81.4032 1.45149 81.2312 1.60547C81.0368 1.02282 81.5092 0.348083 82.2834 0.0986148C83.0576 -0.150854 83.8335 0.0835462 84.0279 0.669547C83.8601 0.829596 83.6611 0.954862 83.443 1.03789C83.1309 1.135 82.1384 1.14839 81.8213 1.25052Z" fill="white"/>
<path d="M83.4664 1.11154C83.6842 1.03104 83.8844 0.910578 84.0564 0.756592C84.2508 1.33924 83.7801 2.01231 83.0042 2.26345C82.2283 2.51459 81.4507 2.26345 81.2563 1.68582C81.4275 1.53078 81.6271 1.40918 81.8446 1.32752C82.1584 1.22707 83.1492 1.21367 83.4664 1.11154ZM72.5149 10.0773C72.7596 10.1628 72.9841 10.2961 73.1749 10.4691C73.3915 9.76425 72.8645 8.98571 71.9982 8.72955C71.1319 8.47338 70.2674 8.79317 70.0508 9.49637C70.2365 9.6777 70.4599 9.81761 70.7056 9.90657C71.0535 10.0087 72.1602 9.97187 72.5149 10.0773Z" fill="white"/>
<path d="M70.6772 9.9987C70.4321 9.91391 70.2075 9.78055 70.0172 9.60691C69.8006 10.3118 70.3276 11.0903 71.1939 11.3482C72.0602 11.606 72.9282 11.2712 73.1447 10.5663C72.9553 10.3916 72.7312 10.2571 72.4865 10.1711C72.1352 10.0673 71.0319 10.1042 70.6772 9.9987ZM65.314 6.84936C65.521 6.81314 65.7332 6.81827 65.9381 6.86443C65.8034 6.28345 65.1128 5.94357 64.4034 6.1043C63.694 6.26504 63.2097 6.83095 63.3478 7.41192C63.5523 7.46641 63.7664 7.4767 63.9753 7.44206C64.2567 7.37844 65.0207 6.91466 65.314 6.84936Z" fill="white"/>
<path d="M63.9874 7.51901C63.7805 7.55603 63.5681 7.5509 63.3633 7.50394C63.498 8.08492 64.1869 8.4248 64.8981 8.26407C65.6092 8.10334 66.0918 7.52738 65.9519 6.9464C65.7475 6.89778 65.535 6.89094 65.3278 6.92631C65.043 6.99161 64.279 7.45371 63.9874 7.51901ZM68.3257 8.26407C68.5709 8.19174 68.8281 8.16728 69.0829 8.19207C68.8271 7.5324 67.9437 7.23271 67.1064 7.52236C66.2691 7.81201 65.7814 8.54702 66.0355 9.20669C66.2908 9.24047 66.5506 9.22107 66.7978 9.14977C67.1354 9.04094 67.9846 8.38294 68.3257 8.26407Z" fill="white"/>
<path d="M66.8295 9.2403C66.5851 9.31371 66.3283 9.33875 66.074 9.31397C66.3281 9.97363 67.2132 10.2717 68.0505 9.98368C68.8878 9.6957 69.3704 8.9473 69.1163 8.28595C68.8618 8.26003 68.6045 8.28335 68.3591 8.3546C68.0215 8.46845 67.1722 9.12142 66.8295 9.2403ZM67.9192 1.58546C68.1265 1.61979 68.3244 1.69559 68.5007 1.80814C68.574 1.21544 68.0436 0.666274 67.3172 0.579211C66.5907 0.492148 65.9444 0.865514 65.8711 1.45654C66.0447 1.57575 66.2425 1.65684 66.4509 1.69429C66.7442 1.72945 67.6224 1.54862 67.9192 1.58546Z" fill="white"/>
<path d="M66.4398 1.77293C66.2325 1.73859 66.0346 1.6628 65.8583 1.55025C65.785 2.14127 66.3154 2.69211 67.0418 2.77918C67.7683 2.86624 68.4163 2.48283 68.4896 1.89013C68.3136 1.77615 68.1157 1.69866 67.9081 1.66243C67.6165 1.62894 66.7366 1.80809 66.4398 1.77293ZM72.6932 1.53686C72.881 1.56772 73.0603 1.63611 73.2201 1.73777C73.2866 1.202 72.8074 0.70306 72.1475 0.624369C71.4875 0.545677 70.9043 0.883883 70.8378 1.41965C70.9949 1.52808 71.1741 1.60176 71.363 1.63564C71.6223 1.67415 72.4237 1.50672 72.6932 1.53686Z" fill="white"/>
<path d="M71.3573 1.70583C71.1698 1.67511 70.9905 1.60733 70.8304 1.50659C70.7639 2.04236 71.2431 2.5413 71.903 2.61999C72.563 2.69868 73.1479 2.35043 73.2144 1.81466C73.0549 1.71148 72.8756 1.6414 72.6875 1.60872C72.4214 1.57524 71.6251 1.73932 71.3573 1.70583ZM73.1752 5.49139C73.3704 5.63962 73.5329 5.82534 73.6527 6.03721C74.0602 5.46293 73.8232 4.6057 73.1138 4.12183C72.4044 3.63796 71.5296 3.67814 71.122 4.25242C71.236 4.46949 71.3958 4.66015 71.5909 4.81163C71.874 5.00585 72.8853 5.29383 73.1752 5.49139Z" fill="white"/>
<path d="M71.5347 4.8871C71.3395 4.73888 71.177 4.55316 71.0572 4.34129C70.6497 4.91557 70.8867 5.7728 71.5961 6.255C72.3055 6.73719 73.1854 6.69031 73.5947 6.11603C73.476 5.90297 73.3141 5.71607 73.1189 5.56687C72.8341 5.37265 71.8229 5.08467 71.5347 4.8871ZM68.8949 4.85529C69.1789 4.86966 69.4567 4.94269 69.71 5.0696C69.71 4.23246 68.9085 3.56274 67.9195 3.56274C66.9304 3.56274 66.1289 4.18893 66.1289 5.02607C66.3804 5.16179 66.6593 5.24126 66.9457 5.2588C67.3363 5.2454 68.4839 4.85529 68.8949 4.85529Z" fill="white"/>
<path d="M66.9379 5.3576C66.6536 5.34329 66.3753 5.27087 66.1211 5.14496C66.1211 5.98211 66.9226 6.65182 67.9117 6.65182C68.9007 6.65182 69.7022 6.0089 69.7022 5.17343C69.451 5.04732 69.1756 4.97432 68.8939 4.95912C68.4881 4.95912 67.3421 5.3576 66.9379 5.3576ZM74.4054 12.4214C74.4054 12.4214 74.6322 10.6634 74.5043 9.95184C74.3765 9.24027 73.6244 8.06827 72.6285 7.44041C71.9552 7.03453 71.229 6.72024 70.4696 6.50616C70.4696 6.50616 71.9328 6.45091 72.828 7.0637C73.7233 7.67649 74.547 8.75305 74.547 8.75305C74.547 8.75305 74.3918 7.31484 74.3918 6.79916C74.3918 6.28348 74.3918 4.95744 74.4771 4.74816C74.5623 4.53887 74.3765 4.07844 74.107 3.73019C73.8376 3.38194 73.0702 2.51131 73.0702 2.51131C73.0702 2.51131 73.6807 2.70553 73.8802 2.94328L74.6186 3.83567C74.6186 3.83567 75.0876 2.34388 75.2871 1.89685C75.4718 1.51735 75.6803 1.14942 75.9112 0.795166C75.9112 0.795166 75.5446 2.17645 75.4423 2.52973C75.3197 2.96379 75.2252 3.405 75.1592 3.85074C75.0761 4.53159 75.0283 5.21614 75.0159 5.90174C75.357 4.78499 76.0545 3.85074 76.2676 3.65485C76.4808 3.45896 77.6592 2.70553 77.6592 2.70553C77.6592 2.70553 76.8781 3.69671 76.4944 4.17053C76.1107 4.64435 75.4849 5.96202 75.3741 6.56141C75.2632 7.1608 75.2598 7.45548 75.3161 7.76187C75.3723 8.06827 75.5872 8.55716 75.5872 8.73798C75.8993 8.33448 76.4825 7.56598 76.8372 7.37176C77.1919 7.17755 77.5483 6.92473 78.0446 6.95319C77.5057 7.27298 76.7656 7.97116 76.5678 8.30602C76.3699 8.64087 76.0272 9.08791 75.9283 9.6873C75.8294 10.2867 76.0408 12.3528 76.0408 12.3528L74.4054 12.4214ZM78.5783 18.7335C77.712 19.6192 76.4126 20.0729 75.1336 20.0729C73.7301 20.0729 72.5757 19.5539 71.9123 18.7703C70.4594 19.0181 69.5129 19.4183 69.5129 19.872C69.5129 20.6221 71.399 21.4693 75.2649 21.4693C78.4743 21.4693 81.259 20.6221 81.259 19.872C81.259 19.3982 80.1898 18.9762 78.5783 18.7335ZM79.5537 12.6592C79.6575 12.7635 79.7392 12.887 79.7942 13.0225C79.8388 13.2145 79.8532 13.4122 79.8368 13.6085C80.1216 13.6219 80.7901 13.6503 81.1022 13.8596C81.4142 14.0689 81.699 14.3753 81.6854 14.7939C81.6584 15.0368 81.58 15.2714 81.4552 15.4828C81.3304 15.6941 81.1619 15.8775 80.9606 16.0211C80.5885 16.3091 80.1769 16.5441 79.7379 16.7193C79.6816 16.8583 79.5537 17.1797 79.4395 17.4024C79.3328 17.6227 79.2145 17.8373 79.0848 18.0453C79.8948 17.8495 81.6427 17.3187 82.3385 16.0781C83.0343 14.8374 82.5517 13.9701 82.4374 13.7474C82.3232 13.5248 81.9258 12.9656 81.3443 12.7981C80.761 12.6456 80.1542 12.5985 79.5537 12.6592Z" fill="white"/>
<path d="M77.5108 1.59204C77.7049 1.51917 77.9102 1.47953 78.1179 1.47484C78.302 1.4602 78.4866 1.49737 78.65 1.582C78.7984 1.67373 78.9731 1.71601 79.1479 1.70254C79.3411 1.69928 79.5319 1.66067 79.7107 1.58869M64.5164 3.71169C64.2832 3.61624 64.034 3.56401 63.7815 3.55765C63.5559 3.53835 63.3297 3.58743 63.1335 3.69829C62.9568 3.81777 62.7436 3.87393 62.5298 3.85735C62.2946 3.85245 62.0628 3.80181 61.8477 3.70834M73.6193 6.11596C73.4352 5.8696 73.2145 5.65175 72.9645 5.46969C72.7515 5.29616 72.4977 5.17761 72.2261 5.12479C71.9666 5.09392 71.7215 4.99047 71.5201 4.82676C71.2863 4.65803 71.0824 4.45271 70.9164 4.219M65.9301 6.88949C65.676 6.86825 65.42 6.88576 65.1713 6.94139C64.9473 6.97829 64.7369 7.07176 64.5608 7.21262C64.4049 7.35667 64.2091 7.45221 63.998 7.48721C63.7663 7.54052 63.527 7.55467 63.2903 7.52906M69.1583 8.16027C68.8449 8.18651 68.5361 8.25119 68.2391 8.35281C67.9707 8.42921 67.7223 8.56172 67.511 8.74125C67.3238 8.91834 67.0964 9.04919 66.8476 9.12298C66.5726 9.217 66.2857 9.27334 65.9949 9.29041M69.7466 5.10804C69.4267 4.98245 69.0866 4.91385 68.7422 4.90545C68.2187 4.90545 68.0174 5.00089 67.8571 5.0913C67.6136 5.24995 67.3231 5.3242 67.0318 5.30226C66.71 5.29657 66.3925 5.22888 66.0973 5.10302M68.5307 1.85156C68.3043 1.72463 68.0565 1.63845 67.7992 1.59706C67.5719 1.54628 67.3344 1.56318 67.117 1.64562C66.918 1.73895 66.6929 1.76429 66.4775 1.71761C66.2362 1.68028 66.0045 1.59726 65.7954 1.47317M73.2663 10.5143C73.0043 10.3349 72.7171 10.1939 72.4137 10.0957C72.1488 9.99399 71.8622 9.95832 71.5798 9.99194C71.3171 10.039 71.0463 10.0141 70.7971 9.91994C70.5131 9.83073 70.2459 9.69671 70.0058 9.52314M73.2646 1.79463C73.0603 1.68222 72.8375 1.60572 72.6064 1.5686C72.4025 1.52411 72.1898 1.53865 71.9942 1.61046C71.8148 1.69068 71.6138 1.71182 71.4212 1.67073C71.2055 1.63777 70.9983 1.56445 70.8107 1.45475M81.6343 3.66313C81.9223 3.69827 82.2037 3.77382 82.4698 3.88749C82.7121 3.97709 82.9286 4.12301 83.1008 4.31276C83.2501 4.5017 83.4495 4.64653 83.6772 4.73133C83.9245 4.83872 84.1875 4.90709 84.4565 4.93392M84.697 2.32873C84.9244 2.30303 85.1545 2.31206 85.3791 2.35552C85.58 2.3832 85.77 2.46231 85.9299 2.58489C86.0735 2.71005 86.2514 2.79099 86.4415 2.81762C86.6491 2.85952 86.8625 2.86632 87.0725 2.83771M81.2011 1.67408C81.4274 1.49749 81.6791 1.35475 81.948 1.25049C82.1816 1.14512 82.4385 1.09907 82.6949 1.11654C82.9354 1.14858 83.1801 1.11318 83.4009 1.01441C83.6518 0.918867 83.8851 0.7837 84.0916 0.614258M76.8389 9.8446C77.1213 9.74939 77.417 9.69799 77.7155 9.69224C77.98 9.67129 78.2455 9.71983 78.4846 9.83288C78.7018 9.9571 78.9516 10.0154 79.2025 10.0003C79.4805 9.99639 79.7556 9.94542 80.0159 9.84962M76.5491 6.24823C76.7407 6.02837 76.9635 5.83666 77.2107 5.67898C77.4218 5.52596 77.6676 5.42543 77.9269 5.38598C78.1732 5.36296 78.4087 5.27567 78.6091 5.13316C78.8402 4.9868 79.0467 4.80605 79.2213 4.59739M79.6663 8.03637C79.9061 7.84511 80.1803 7.69973 80.4747 7.60775C80.9231 7.48051 81.121 7.51902 81.283 7.56255C81.5311 7.64648 81.8012 7.64293 82.0469 7.5525C82.3222 7.46861 82.577 7.33014 82.7956 7.14565" stroke="white" stroke-width="0.487229" stroke-linecap="round" stroke-linejoin="round"/>
<mask id="mask0_640_17340" style="mask-type:luminance" maskUnits="userSpaceOnUse" x="70" y="12" width="10" height="3">
<path d="M75.1978 14.0271C77.5636 14.0271 79.4815 13.5863 79.4815 13.0426C79.4815 12.4989 77.5636 12.0581 75.1978 12.0581C72.8319 12.0581 70.9141 12.4989 70.9141 13.0426C70.9141 13.5863 72.8319 14.0271 75.1978 14.0271Z" fill="white"/>
</mask>
<g mask="url(#mask0_640_17340)">
<path d="M79.4832 13.0425C79.4832 13.5867 77.5647 14.027 75.1995 14.027C72.8342 14.027 70.9141 13.5867 70.9141 13.0425C70.9141 12.4984 72.8325 12.0547 75.2046 12.0547C77.5767 12.0547 79.4832 12.5 79.4832 13.0425Z" fill="white"/>
<path d="M79.0124 13.461C79.0124 13.0876 77.3174 12.7913 75.225 12.7913C73.1326 12.7913 71.4375 13.0943 71.4375 13.461C71.4375 13.8276 73.1343 14.1307 75.225 14.1307C77.3157 14.1307 79.0124 13.8343 79.0124 13.461Z" fill="white"/>
<path d="M71.8203 12.696V14.0991M72.1614 12.696V14.0991M72.5024 12.696V14.0991M72.8435 12.696V14.0991M73.1846 12.696V14.0991M73.5256 12.696V14.0991M73.8667 12.696V14.0991M74.2077 12.696V14.0991M74.5488 12.696V14.0991M74.8899 12.696V14.0991M75.2309 12.696V14.0991M75.572 12.696V14.0991M75.913 12.696V14.0991M76.2541 12.696V14.0991M76.5952 12.696V14.0991M76.9362 12.696V14.0991M77.2773 12.696V14.0991M77.6183 12.696V14.0991M77.9594 12.696V14.0991M78.3005 12.696V14.0991M78.6415 12.696V14.0991" stroke="white" stroke-width="0.487229" stroke-miterlimit="10" stroke-linecap="round"/>
</g>
<path d="M16.0716 5.48469C16.1905 5.79899 16.2376 6.13504 16.2098 6.46917C16.1747 6.84136 16.0874 7.20701 15.9506 7.55578C15.7537 8.03598 15.4642 8.47431 15.0979 8.84666C15.7325 9.56577 16.0658 10.4943 16.0307 11.4452C15.9916 12.4937 15.7327 13.523 15.2701 14.4689C14.7442 15.5625 14.0752 16.5841 13.2801 17.5077C12.457 18.4883 11.5323 19.3822 10.5209 20.1749C9.57338 20.9196 8.54376 21.5576 7.45134 22.0769C6.41452 22.5624 5.45785 22.8057 4.58132 22.8069C3.86067 22.8295 3.14431 22.6898 2.48721 22.3983C1.96327 22.1587 1.50193 21.8048 1.13832 21.3636C0.810701 20.9571 0.558979 20.4968 0.394812 20.0041C0.240822 19.5509 0.130628 19.0845 0.0656888 18.6111C0.0128142 18.2401 -0.00999469 17.8656 -0.00252318 17.491C0.00941391 17.1846 0.0145298 17.0105 0.0145298 16.9653C0.0145298 16.7978 0.0315828 16.5467 0.0656888 16.1834C0.116431 15.7414 0.203109 15.3042 0.324894 14.8758C0.49543 14.2851 0.705642 13.7062 0.95415 13.1429C1.26391 12.4393 1.63476 11.7632 2.0626 11.122C2.7005 10.1302 3.43004 9.19817 4.24197 8.33768C5.16825 7.342 6.22713 6.47359 7.38995 5.75593C7.78047 5.50813 8.19656 5.27038 8.63482 5.04268C9.02704 4.86186 9.47099 4.67545 9.96666 4.48347C10.4769 4.28462 11.0035 4.1289 11.5407 4.01802C11.9701 3.94783 12.4035 3.90254 12.8384 3.8824C13.2723 3.85825 13.7075 3.88637 14.1344 3.96611C14.5404 4.04204 14.9246 4.20434 15.2599 4.44161C15.6199 4.7125 15.9 5.07249 16.0716 5.48469ZM13.3432 8.81317C13.2879 8.76781 13.2234 8.73474 13.1539 8.71624C13.0844 8.69775 13.0117 8.69426 12.9407 8.70602C12.7862 8.73042 12.639 8.78755 12.5093 8.87345C12.3687 8.96894 12.2409 9.08144 12.129 9.20831C12.0282 9.31087 11.9462 9.42984 11.8868 9.55991C11.863 9.62855 11.822 9.65199 11.7658 9.62855C11.7334 9.61371 11.7044 9.59255 11.6807 9.56635C11.6569 9.54015 11.6389 9.50948 11.6276 9.47619C11.5914 9.37142 11.5914 9.25783 11.6276 9.15305C11.6779 8.98649 11.7666 8.83352 11.8868 8.70602C12.2279 8.25396 12.6423 8.00952 13.1146 7.97603C13.4823 7.92977 13.856 7.97053 14.2043 8.0949C14.5701 7.78542 14.9005 7.43793 15.19 7.05852C15.415 6.78705 15.5211 6.439 15.485 6.09078C15.4855 6.08161 15.484 6.07243 15.4808 6.0638C15.4776 6.05517 15.4726 6.04727 15.4663 6.04056C15.4599 6.03351 15.4552 6.02526 15.4523 6.01634C15.4493 6.00741 15.4483 5.99799 15.4492 5.98865C15.4463 5.89858 15.423 5.81026 15.3812 5.73007C15.3393 5.64987 15.2798 5.57979 15.207 5.52488C15.0034 5.38507 14.7702 5.29234 14.5249 5.25364C14.0591 5.18677 13.5851 5.19809 13.1232 5.28713C12.5797 5.3766 12.0468 5.51906 11.5321 5.71239C10.8301 5.97946 10.1575 6.31605 9.52499 6.71697C8.66747 7.26058 7.86005 7.87683 7.11199 8.55868C6.09852 9.48608 5.16164 10.491 4.31018 11.564C4.18678 11.7156 4.07289 11.8744 3.96912 12.0395C3.78495 12.3108 3.5661 12.6674 3.31258 13.1094C3.03124 13.6051 2.77735 14.1154 2.55202 14.638C2.28563 15.2497 2.06561 15.8798 1.89377 16.5233C1.6141 17.6741 1.52599 18.5743 1.62945 19.2239C1.68041 19.5419 1.79756 19.8463 1.9736 20.1179C2.14964 20.3896 2.38078 20.6227 2.65263 20.8027C2.83649 20.962 3.06442 21.064 3.30746 21.0957C3.57114 21.1309 3.83845 21.1309 4.10213 21.0957C4.39018 21.0607 4.67518 21.0048 4.95478 20.9283C5.24127 20.8479 5.51242 20.7609 5.76651 20.6738C5.91057 20.5824 6.06819 20.5135 6.23376 20.4696C6.50806 20.3757 6.77934 20.2735 7.04719 20.1632L8.74225 19.0766C9.25388 18.751 9.73958 18.3877 10.1952 17.9899C10.8363 17.4763 11.4376 16.9167 11.9943 16.3157C12.5518 15.7163 13.0604 15.0747 13.5154 14.3969C13.941 13.7656 14.2896 13.0873 14.5539 12.3761C14.7997 11.731 14.9055 11.0427 14.8643 10.3552C14.8795 10.1661 14.8374 9.97672 14.7432 9.81105C14.6631 9.69887 14.588 9.59674 14.5181 9.50633C14.0826 9.95725 13.6147 10.3769 13.1181 10.762C12.6212 11.1471 12.1665 11.4926 11.7538 11.7984C11.3411 12.1043 10.9819 12.3431 10.6761 12.515C10.3759 12.6975 10.202 12.798 10.1559 12.8214L9.4312 13.2618L9.36128 13.2969C8.13801 14.0213 7.22113 14.4912 6.61063 14.7067C6.00013 14.921 5.65907 15.0181 5.58745 14.9946C5.33601 15.0057 5.08589 14.9532 4.86099 14.8423C4.69039 14.7522 4.53317 14.6395 4.39374 14.5074C4.28029 14.4033 4.19177 14.2758 4.13453 14.1341C4.08849 14.0102 4.05268 13.9131 4.03051 13.8444C3.9839 13.6212 4.01289 13.514 4.11748 13.5229C4.29748 13.5276 4.47736 13.5102 4.65295 13.471C4.91537 13.4068 5.17027 13.3159 5.41351 13.1998C5.78356 13.0324 6.22694 12.8382 6.74535 12.5887C7.26376 12.3392 7.8572 12.0546 8.51374 11.7197C9.17028 11.3849 9.86775 11.0366 10.6061 10.6499L12.1409 9.66539C12.5693 9.39774 12.9794 9.103 13.3687 8.78304L13.3432 8.81317ZM24.3628 16.761C24.3628 16.7845 24.3628 16.7945 24.3799 16.7945C24.3969 16.7945 24.3969 16.8062 24.3969 16.828C24.3969 16.9653 24.1889 17.1963 23.7745 17.5245C23.3601 17.8526 22.6132 18.154 21.5371 18.4253L21.0528 18.9677C20.8925 19.1502 20.7118 19.331 20.5412 19.5119C20.2369 19.8579 19.9013 20.1762 19.5385 20.4629C19.2209 20.7261 18.8722 20.951 18.5 21.1326C18.1365 21.317 17.7342 21.4156 17.325 21.4206C16.9311 21.4206 16.6429 21.3184 16.4724 21.1142C16.296 20.9046 16.2033 20.6392 16.2115 20.3674C16.2146 20.0899 16.2795 19.8165 16.4018 19.5663C16.5241 19.3161 16.7007 19.0952 16.9192 18.9192C17.3921 18.5006 18.0782 18.2344 18.9775 18.1205C19.7268 17.2303 20.3657 16.2557 20.8806 15.2173C21.2728 14.369 21.4689 13.7518 21.4689 13.3656C21.4689 13.1178 21.399 12.9922 21.2609 12.9922C21.0693 13.0102 20.8853 13.0746 20.7254 13.1797C20.4822 13.32 20.2507 13.479 20.033 13.6552C19.7909 13.8483 19.5487 14.052 19.3066 14.2663C19.0644 14.4823 18.8513 14.6682 18.6671 14.8272C18.0907 15.5974 17.6235 16.2593 17.2653 16.8129C16.9072 17.3665 16.619 17.8365 16.4008 18.2227C16.2178 18.5344 16.056 18.8577 15.9165 19.1904C15.8124 19.4516 15.7152 19.6826 15.6231 19.8869C15.5993 19.9561 15.5703 20.0465 15.5362 20.1581C15.5021 20.272 15.4611 20.3959 15.4151 20.5332C15.369 20.6705 15.3281 20.7994 15.294 20.9233C15.2674 21.0061 15.2497 21.0914 15.2412 21.1778C15.2428 21.2197 15.2301 21.261 15.2051 21.295C15.18 21.329 15.1441 21.3537 15.103 21.3653C15.0109 21.3988 14.8847 21.3653 14.7227 21.2464C14.5451 21.1171 14.3827 20.9689 14.2384 20.8044C14.0719 20.6073 13.955 20.3744 13.8974 20.1247C13.8518 19.9008 13.829 19.6731 13.8292 19.4449C13.8292 19.1279 13.9616 18.7093 14.2265 18.1892C14.4914 17.669 14.7853 17.1483 15.1081 16.6271C15.4776 15.9931 15.9216 15.2675 16.44 14.4505C16.9584 13.6334 17.47 12.8186 17.9747 12.006C18.4807 11.189 18.9417 10.4244 19.3577 9.71227C19.7738 9.00014 20.0859 8.42809 20.294 7.99612C20.4398 7.70915 20.5541 7.40776 20.635 7.09703C20.6747 6.9322 20.6981 6.76399 20.7049 6.59474C20.7049 6.50601 20.768 6.44238 20.8942 6.4089C21.0554 6.38144 21.2212 6.41175 21.3615 6.49429C21.6562 6.69145 21.9209 6.92879 22.1476 7.19916C22.2861 7.36546 22.3853 7.55983 22.438 7.76827C22.4908 7.97671 22.4959 8.19405 22.4529 8.40465C22.4085 8.78973 22.2045 9.3216 21.8407 10.0002C21.2654 11.0176 20.6353 12.004 19.9529 12.9554C20.2389 12.7608 20.54 12.5884 20.8533 12.4397C21.152 12.2926 21.4809 12.2142 21.8151 12.2103C22.0247 12.2092 22.2314 12.258 22.4176 12.3525C22.6038 12.447 22.764 12.5843 22.8843 12.7528C23.1674 13.1161 23.3089 13.6134 23.3089 14.2479C23.2974 14.7679 23.2059 15.2833 23.0378 15.7765C22.8157 16.4274 22.5073 17.0466 22.1203 17.6182C22.3164 17.5595 22.5074 17.4856 22.6916 17.3972C22.9099 17.2951 23.123 17.193 23.3311 17.0925C23.5391 16.9921 23.7233 16.905 23.8853 16.8364C23.9832 16.7882 24.0878 16.7544 24.1957 16.7359C24.2527 16.7276 24.3109 16.7363 24.3628 16.761ZM17.2142 20.0912C17.5825 19.7295 17.9281 19.3556 18.251 18.9694C17.6746 19.1513 17.3 19.3779 17.1272 19.6492C17.0188 19.7951 16.9316 19.9551 16.868 20.1247C16.868 20.2151 16.8902 20.2603 16.9362 20.2603C16.9963 20.2469 17.0539 20.2243 17.1068 20.1933C17.1529 20.1716 17.1906 20.1358 17.2142 20.0912Z" fill="white"/>
<path d="M32.9543 16.7946C32.9842 16.8203 33.0087 16.8516 33.0262 16.8867C33.0438 16.9218 33.0541 16.9599 33.0566 16.9989C33.0478 17.1156 33.0058 17.2275 32.9355 17.322C32.8025 17.5162 32.6584 17.7029 32.5041 17.8812C32.3182 18.0855 32.0488 18.3835 31.6907 18.7652C31.3248 19.1581 30.9383 19.532 30.5328 19.8853C30.153 20.2204 29.7483 20.5271 29.322 20.8028C28.9281 21.0523 28.5955 21.1528 28.3176 21.1076C27.9031 21.0266 27.5094 20.8649 27.1597 20.6321C26.8254 20.4088 26.6583 20.0583 26.6583 19.5806C26.6638 19.4174 26.6984 19.2565 26.7606 19.1051C26.8305 18.9226 26.8885 18.7703 26.9312 18.6631C26.8152 18.777 26.6378 18.9678 26.3974 19.2407C26.157 19.5136 25.8995 19.7832 25.6249 20.0561C25.3676 20.3124 25.0924 20.5507 24.8012 20.7694C24.5267 20.9719 24.3101 21.0741 24.1498 21.0741C23.7648 21.0559 23.4022 20.8914 23.1386 20.6153C22.8077 20.3106 22.6406 19.8753 22.6406 19.3077C22.6406 19.2859 22.6713 19.1168 22.7276 18.8054C22.8262 18.367 22.9714 17.9399 23.1607 17.5313C23.45 16.8964 23.797 16.2884 24.1976 15.7147C24.7438 14.9404 25.3828 14.2332 26.1007 13.6084C26.6545 13.0634 27.283 12.5968 27.968 12.2221C28.404 11.9862 28.8895 11.8522 29.3868 11.8303C29.6805 11.8293 29.971 11.8894 30.2394 12.0065C30.5077 12.1237 30.7478 12.2953 30.9437 12.5101C31.3603 12.9255 31.6585 13.4411 31.8083 14.0052C31.8775 14.2082 31.8835 14.4268 31.8254 14.6331C31.7809 14.7629 31.6962 14.8759 31.5832 14.9562C31.5448 14.9863 31.5002 15.0078 31.4525 15.0194C31.4049 15.0309 31.3552 15.0322 31.307 15.0232C31.2251 15.0014 31.1978 14.9445 31.22 14.8558C31.2859 14.5596 31.2561 14.2506 31.1347 13.9717C31.0068 13.6369 30.8056 13.4695 30.5293 13.4695C30.2503 13.4779 29.9749 13.5346 29.7159 13.6369C29.3474 13.7861 29.0125 14.0052 28.7303 14.2815C28.4301 14.5527 28.0493 14.9434 27.5877 15.4535C27.1261 15.9636 26.6765 16.4899 26.2388 17.0323C25.8362 17.5272 25.461 18.0431 25.115 18.5777C24.8035 19.0655 24.6478 19.4109 24.6478 19.6141C24.6478 19.7279 24.6699 19.7815 24.716 19.7815C24.7976 19.7667 24.8739 19.7315 24.9377 19.6794C25.0383 19.6124 25.248 19.4416 25.5669 19.1771C25.7238 19.0197 26.0256 18.7301 26.4707 18.3115C26.9158 17.8929 27.3694 17.4509 27.835 16.9871C28.3005 16.5234 28.7064 16.0981 29.0628 15.713C29.4192 15.3279 29.588 15.1019 29.5744 15.0332C29.5045 14.7855 29.6017 14.6381 29.8677 14.5929C30.1576 14.5492 30.4543 14.5905 30.7203 14.7118C31.0188 14.8313 31.2618 15.0549 31.4025 15.3396C31.5508 15.6343 31.4656 15.996 31.1415 16.4263C31.0495 16.5624 30.8539 16.8169 30.5549 17.1897C30.2559 17.5625 29.9615 17.9532 29.6716 18.3617C29.4176 18.7152 29.1869 19.0843 28.9809 19.4668C28.8104 19.8016 28.8019 19.9925 28.9622 20.0611C28.986 20.0611 28.9912 20.0728 28.9809 20.0946C28.9707 20.1164 28.9809 20.1281 28.998 20.1281C29.1583 20.1281 29.4243 19.9808 29.7927 19.6861C30.194 19.3637 30.5756 19.0182 30.9352 18.6514L32.059 17.5129C32.4171 17.1512 32.6763 16.9023 32.8366 16.7661C32.8383 16.7427 32.8844 16.7427 32.9543 16.7946Z" fill="white"/>
<path d="M36.4829 14.6213C35.8826 15.5265 35.3233 16.381 34.8049 17.1846C34.3878 17.8115 34.0124 18.4641 33.6811 19.1385C33.6112 19.3059 33.5361 19.4834 33.456 19.6994C33.3758 19.9154 33.3809 20.0342 33.473 20.056C33.5651 20.0778 33.6981 20.0275 33.9403 19.835C34.1824 19.6425 34.4706 19.3997 34.8049 19.105C35.1391 18.8103 35.4733 18.4989 35.8076 18.1708C36.1418 17.8426 36.4249 17.553 36.6602 17.3035L36.7643 17.203C36.8526 17.0662 36.9574 16.9403 37.0763 16.828C37.2145 16.6924 37.3407 16.6706 37.4566 16.761C37.5709 16.8062 37.6067 16.9084 37.5606 17.0657C37.5146 17.2231 37.3287 17.4743 37.0064 17.8141C36.7759 18.0949 36.5275 18.361 36.2629 18.6111C35.9048 18.9627 35.5239 19.3137 35.1204 19.6642C34.7168 20.0147 34.3223 20.3245 33.9369 20.5935C33.5566 20.8647 33.2548 21.012 33.0194 21.0355C32.8677 21.0801 32.7068 21.0858 32.5522 21.0522C32.4021 21.0187 32.2589 20.9785 32.1207 20.9333C32.0024 20.8815 31.9005 20.7994 31.8257 20.6956C31.7694 20.6052 31.7285 20.5382 31.7046 20.4913V20.426C31.6015 20.2811 31.5424 20.1104 31.5341 19.9338C31.5119 19.7178 31.5 19.5537 31.5 19.4315C31.5 19.1145 31.6324 18.6959 31.8973 18.1758C32.1622 17.6556 32.4561 17.1349 32.779 16.6137L33.12 16.036C33.313 15.6163 33.5411 15.2131 33.8022 14.8306C34.0659 14.4332 34.3365 14.0196 34.6139 13.5899C34.9367 13.0687 35.2716 12.5256 35.6183 11.9608C35.965 11.396 36.2993 10.8525 36.621 10.3301C36.2592 10.3705 35.8955 10.3929 35.5313 10.397C35.3028 10.4025 35.0743 10.3857 34.8492 10.3468C34.7356 10.3285 34.6253 10.2941 34.5218 10.2447C34.4638 10.2112 34.457 10.1945 34.503 10.1945C34.1184 10.129 33.7456 10.0088 33.3963 9.83784C33.1625 9.72283 32.9516 9.56743 32.7739 9.37908C32.651 9.24615 32.557 9.09007 32.4976 8.92033C32.4549 8.79438 32.4313 8.66292 32.4277 8.53022C32.4275 8.48999 32.4332 8.44995 32.4447 8.41135C32.4555 8.38402 32.4618 8.3552 32.4635 8.32596C32.4798 8.27598 32.5123 8.23258 32.556 8.20237C32.5997 8.17215 32.6522 8.15676 32.7056 8.15853C32.8659 8.15853 32.9478 8.25899 32.9478 8.46325L32.8779 8.53189C32.8779 8.5771 32.9359 8.62231 33.0484 8.66751C33.1773 8.72335 33.2933 8.80422 33.3895 8.90526H33.5975L33.5634 8.93875C33.9239 8.99961 34.2878 9.0393 34.6531 9.05762C34.9413 9.06934 35.2176 9.06934 35.4836 9.05762C35.7496 9.0459 36.0361 9.02413 36.3482 8.99065C36.6602 8.95716 37.0576 8.90526 37.5419 8.83661C37.9966 8.04412 38.3309 7.42184 38.5446 6.96978C38.69 6.68204 38.8043 6.38014 38.8857 6.06902C38.9245 5.90748 38.9474 5.74263 38.9539 5.57678C38.9539 5.48637 39.017 5.42442 39.1449 5.38926C39.306 5.3618 39.4718 5.39211 39.6121 5.47465C39.908 5.67025 40.1754 5.90458 40.4068 6.17115C40.6847 6.47587 40.7871 6.87937 40.7189 7.37664C40.6755 7.63184 40.6058 7.88204 40.5108 8.12337C40.4869 8.21545 40.4648 8.29917 40.4426 8.37786C40.4204 8.45655 40.3846 8.54529 40.3386 8.66751C42.344 8.55589 43.7509 8.52185 44.5592 8.56538C44.9988 8.59082 45.4283 8.7048 45.8211 8.90024C46.1216 9.05563 46.3913 9.2626 46.6175 9.51135C46.8049 9.71387 46.9467 9.95291 47.0336 10.2129C47.0931 10.3882 47.1281 10.5707 47.1376 10.7553C47.1357 10.7738 47.1377 10.7924 47.1436 10.81C47.1495 10.8276 47.1591 10.8437 47.1717 10.8575C47.1712 10.862 47.1717 10.8666 47.1732 10.8709C47.1747 10.8752 47.1772 10.8791 47.1805 10.8823C47.1838 10.8856 47.1878 10.888 47.1921 10.8895C47.1965 10.891 47.2012 10.8915 47.2058 10.891C47.2047 10.9643 47.1809 11.0355 47.1376 11.0952C47.0899 11.1639 46.9875 11.1856 46.8255 11.1639C46.5254 11.2091 46.3992 11.1287 46.4452 10.9261V10.8575C46.4214 10.8357 46.3873 10.8072 46.3412 10.7721C46.2599 10.7226 46.1729 10.6827 46.082 10.6532C45.9073 10.5986 45.7282 10.5588 45.5466 10.5343C45.3146 10.5009 45.0145 10.4623 44.6462 10.4155C43.9035 10.3689 43.1589 10.3634 42.4156 10.3987C41.4572 10.4344 40.425 10.4629 39.3188 10.4841H39.2847L38.3161 11.9441L36.8359 14.0771C36.766 14.1692 36.7029 14.2596 36.6449 14.35C36.5869 14.4405 36.5289 14.5309 36.4829 14.6213Z" fill="white"/>
<path d="M46.2697 16.7947C46.3001 16.8201 46.3251 16.8513 46.3429 16.8864C46.3608 16.9215 46.3713 16.9598 46.3737 16.999C46.3649 17.1157 46.323 17.2276 46.2526 17.3221C46.119 17.5159 45.975 17.7025 45.8212 17.8813C45.6353 18.0856 45.3659 18.3836 45.0078 18.7653C44.6417 19.1586 44.2547 19.5325 43.8482 19.8854C43.4691 20.2213 43.0643 20.528 42.6374 20.8029C42.2452 21.0524 41.9109 21.1529 41.6347 21.1077C41.2202 21.027 40.8264 20.8653 40.4768 20.6322C40.1357 20.4089 39.9652 20.0584 39.9652 19.5807C39.9713 19.4175 40.0066 19.2565 40.0692 19.1052C40.1391 18.9227 40.1954 18.7704 40.2398 18.6632C40.1238 18.7771 39.9464 18.9679 39.706 19.2408C39.4655 19.5137 39.208 19.7833 38.9335 20.0562C38.6762 20.3125 38.401 20.5508 38.1098 20.7695C37.8353 20.972 37.6187 21.0742 37.4584 21.0742C37.0733 21.0564 36.7105 20.8918 36.4472 20.6154C36.1163 20.3107 35.9492 19.8754 35.9492 19.3078C35.9492 19.286 35.9782 19.1169 36.0362 18.8055C36.1348 18.3671 36.28 17.94 36.4693 17.5314C36.7615 16.8938 37.1119 16.2835 37.5164 15.7081C38.0626 14.9338 38.7016 14.2266 39.4195 13.6018C39.9767 13.0603 40.608 12.5976 41.2953 12.2272C41.7313 11.9914 42.2168 11.8573 42.7141 11.8355C43.0078 11.8345 43.2984 11.8945 43.5667 12.0117C43.8351 12.1288 44.0751 12.3004 44.2711 12.5152C44.6877 12.9307 44.9858 13.4462 45.1357 14.0104C45.2049 14.2133 45.2108 14.4319 45.1527 14.6382C45.1082 14.7681 45.0236 14.881 44.9106 14.9614C44.8721 14.9914 44.8276 15.0129 44.7799 15.0245C44.7322 15.036 44.6826 15.0373 44.6343 15.0283C44.5525 15.0066 44.5235 14.9496 44.5473 14.8609C44.6135 14.5646 44.5831 14.2553 44.4604 13.9769C44.3342 13.642 44.133 13.4746 43.855 13.4746C43.5765 13.4832 43.3017 13.5399 43.0433 13.642C42.6746 13.7909 42.3396 14.01 42.0576 14.2866C41.7575 14.5579 41.3766 14.9485 40.9151 15.4586C40.4535 15.9687 40.0027 16.4933 39.5627 17.0324C39.1601 17.5274 38.785 18.0432 38.439 18.5778C38.1275 19.0656 37.9717 19.4111 37.9717 19.6142C37.9717 19.728 37.9939 19.7816 38.0399 19.7816C38.121 19.7667 38.1967 19.7315 38.2599 19.6795C38.3622 19.6125 38.572 19.4417 38.8892 19.1772C39.0477 19.0198 39.3496 18.7302 39.7947 18.3116C40.2398 17.893 40.6917 17.451 41.1589 16.9872C41.6262 16.5235 42.0286 16.0982 42.3867 15.7131C42.7448 15.328 42.912 15.102 42.8881 15.0333C42.8199 14.7856 42.9171 14.6382 43.1831 14.593C43.473 14.5493 43.7697 14.5907 44.0358 14.7119C44.3344 14.8311 44.5775 15.0548 44.7179 15.3397C44.8679 15.6344 44.7815 15.9966 44.4587 16.4264C44.3666 16.5625 44.1705 16.817 43.8703 17.1898C43.5702 17.5626 43.2763 17.9533 42.9887 18.3618C42.7348 18.7157 42.5036 19.0848 42.2963 19.4669C42.1235 19.795 42.1179 19.9931 42.2793 20.0612C42.3032 20.0612 42.3083 20.073 42.2963 20.0947C42.2844 20.1165 42.2963 20.1282 42.3151 20.1282C42.4754 20.1282 42.7414 19.9809 43.1098 19.6862C43.5104 19.3629 43.8919 19.0175 44.2523 18.6515L45.3761 17.513C45.7331 17.1513 45.9923 16.9024 46.1537 16.7662C46.1554 16.7428 46.2015 16.7428 46.2697 16.7947Z" fill="white"/>
<path d="M49.5222 14.6213C48.922 15.5265 48.3626 16.381 47.8442 17.1846C47.4289 17.8116 47.0552 18.4643 46.7255 19.1385C46.6573 19.3059 46.5806 19.4834 46.5004 19.6994C46.4203 19.9154 46.4254 20.0343 46.5175 20.056C46.6096 20.0778 46.7426 20.0276 46.9847 19.835C47.2269 19.6425 47.5151 19.3997 47.8493 19.105C48.1836 18.8104 48.5178 18.4989 48.8538 18.1708C49.1897 17.8426 49.4694 17.553 49.7064 17.3035L49.8104 17.203C49.8981 17.0662 50.0023 16.9403 50.1208 16.828C50.2589 16.6924 50.3851 16.6706 50.5011 16.761C50.617 16.8062 50.6511 16.9084 50.6051 17.0658C50.5591 17.2231 50.3749 17.4743 50.0526 17.8142C49.8213 18.0948 49.5724 18.361 49.3074 18.6111C48.951 18.9627 48.569 19.3143 48.1665 19.6642C47.7641 20.0142 47.3701 20.334 46.9899 20.5985C46.6096 20.863 46.3077 21.0171 46.0741 21.0405C45.9224 21.0851 45.7615 21.0909 45.6069 21.0573C45.4568 21.0238 45.3118 20.9836 45.1737 20.9384C45.0559 20.8866 44.9545 20.8044 44.8804 20.7006C44.8362 20.6348 44.7958 20.5666 44.7593 20.4964V20.426C44.6569 20.2807 44.5979 20.1103 44.5888 19.9338C44.5666 19.7178 44.5547 19.5537 44.5547 19.4315C44.5547 19.1145 44.6871 18.6959 44.952 18.1758C45.2169 17.6557 45.5114 17.135 45.8354 16.6137L46.1764 16.0361C46.3701 15.6167 46.5982 15.2135 46.8585 14.8306C47.1223 14.4332 47.3934 14.0197 47.672 13.5899C48.4792 12.3231 49.1539 11.2532 49.6962 10.3803C50.1397 9.67689 50.5438 8.95029 50.9069 8.20375C51.0523 7.91601 51.1666 7.61411 51.248 7.30299C51.286 7.1413 51.3088 6.97653 51.3162 6.81075C51.3162 6.72033 51.3793 6.65839 51.5072 6.6249C51.6676 6.59533 51.8334 6.62516 51.9727 6.70861C52.2691 6.90428 52.537 7.13859 52.7691 7.40512C52.9095 7.57043 53.0104 7.76451 53.0644 7.97312C53.1184 8.18172 53.1241 8.39954 53.0812 8.6106C53.0334 8.7931 52.9942 8.98397 52.9601 9.18823C52.8998 9.46121 52.8005 9.72445 52.6651 9.97012C52.5969 10.1057 52.5321 10.2196 52.4758 10.305L52.2678 10.6264C52.1859 10.752 52.0717 10.9111 51.9267 11.1019C51.7818 11.2928 51.5856 11.5724 51.3554 11.9391L49.8684 14.0788C49.8002 14.1709 49.7354 14.2613 49.6791 14.3517C49.6228 14.4421 49.5683 14.5309 49.5222 14.6213Z" fill="white"/>
<path d="M59.4514 16.7946C59.4818 16.82 59.5067 16.8512 59.5246 16.8863C59.5425 16.9214 59.553 16.9597 59.5554 16.9989C59.5458 17.1154 59.5039 17.2272 59.4343 17.322C59.3016 17.516 59.1582 17.7027 59.0046 17.8812C58.8204 18.0855 58.5498 18.3802 58.1929 18.7653C57.8268 19.1585 57.4397 19.5324 57.0333 19.8853C56.6542 20.2212 56.2494 20.5279 55.8225 20.8029C55.4303 21.0523 55.096 21.1528 54.8198 21.1076C54.4048 21.0266 54.0105 20.8649 53.6602 20.6321C53.3259 20.4088 53.1588 20.0584 53.1588 19.5806C53.1641 19.4173 53.1994 19.2562 53.2628 19.1051C53.3328 18.9226 53.389 18.7703 53.4334 18.6631C53.3191 18.777 53.1401 18.9678 52.9013 19.2407C52.6626 19.5137 52.4034 19.7832 52.1288 20.0561C51.8715 20.3124 51.5963 20.5508 51.3052 20.7694C51.0306 20.972 50.814 21.0741 50.6537 21.0741C50.2687 21.0563 49.9059 20.8917 49.6425 20.6153C49.3094 20.3106 49.1434 19.8747 49.1445 19.3077C49.1445 19.286 49.1735 19.1169 49.2315 18.8054C49.3294 18.367 49.474 17.94 49.6629 17.5313C50.3458 16.0318 51.349 14.694 52.6046 13.6084C53.1618 13.0669 53.7931 12.6042 54.4804 12.2339C54.9164 11.998 55.4019 11.8639 55.8992 11.8421C56.1929 11.8412 56.4834 11.9013 56.7518 12.0184C57.0201 12.1356 57.2602 12.3071 57.4562 12.5218C57.872 12.9378 58.17 13.4532 58.3208 14.017C58.3883 14.2202 58.3942 14.4383 58.3378 14.6448C58.2933 14.7747 58.2087 14.8876 58.0957 14.968C58.0572 14.998 58.0127 15.0195 57.965 15.0311C57.9173 15.0427 57.8676 15.044 57.8194 15.0349C57.7375 15.0132 57.7086 14.9563 57.7324 14.8675C57.7967 14.5711 57.7664 14.2624 57.6455 13.9835C57.5193 13.6486 57.3163 13.4812 57.0401 13.4812C56.7611 13.4899 56.4857 13.5466 56.2266 13.6486C55.8584 13.7983 55.5235 14.0173 55.241 14.2932C54.9409 14.5645 54.5606 14.9551 54.1001 15.4652C53.6397 15.9753 53.1901 16.5016 52.7512 17.0441C52.3486 17.5394 51.973 18.0552 51.6258 18.5895C51.3154 19.0772 51.1602 19.4227 51.1602 19.6258C51.1602 19.7397 51.1824 19.7933 51.2284 19.7933C51.3093 19.7779 51.385 19.7428 51.4484 19.6911C51.5507 19.6242 51.7605 19.4534 52.0777 19.1888C52.2362 19.0315 52.5381 18.7418 52.9832 18.3232C53.4283 17.9047 53.8802 17.4627 54.3474 16.9989C54.8147 16.5351 55.2171 16.1098 55.5752 15.7247C55.9333 15.3397 56.0987 15.1136 56.0766 15.045C56.0084 14.7972 56.1056 14.6499 56.3716 14.6047C56.6615 14.5609 56.9582 14.6023 57.2242 14.7235C57.5197 14.8445 57.7595 15.068 57.8978 15.3514C58.0479 15.6461 57.9615 16.0083 57.6386 16.438C57.5465 16.5742 57.3504 16.8287 57.0503 17.2015C56.7502 17.5743 56.4563 17.9649 56.1687 18.3735C55.9148 18.7274 55.6836 19.0964 55.4763 19.4785C55.3058 19.8134 55.2973 20.0042 55.4593 20.0729C55.4814 20.0729 55.4883 20.0846 55.4763 20.1064C55.4644 20.1281 55.4763 20.1398 55.4934 20.1398C55.6554 20.1398 55.9197 19.9925 56.2897 19.6978C56.6902 19.375 57.0711 19.0295 57.4306 18.6631L58.5561 17.5246C58.9119 17.163 59.1711 16.914 59.3337 16.7779C59.3354 16.7427 59.3832 16.7427 59.4514 16.7946ZM106.071 8.47341C106.209 8.4515 106.349 8.4515 106.487 8.47341H106.582C106.743 8.54206 106.813 8.60903 106.789 8.67768C106.754 8.76081 106.694 8.83188 106.618 8.88194C106.516 8.95537 106.405 9.01768 106.289 9.06778L106.03 9.18666C105.639 9.45682 105.305 9.79779 105.044 10.1912C104.784 10.5744 104.581 10.9915 104.439 11.4302C104.306 11.8326 104.219 12.2481 104.18 12.6692C104.143 13.0152 104.16 13.3647 104.231 13.7056C104.277 13.8881 104.352 13.9885 104.456 14.012C104.555 14.0351 104.659 14.0226 104.749 13.9768C105.165 13.8194 105.552 13.4912 105.909 12.9923C106.273 12.4827 106.581 11.9359 106.826 11.3616C107.074 10.7887 107.278 10.1982 107.435 9.59518C107.56 9.12543 107.658 8.64919 107.728 8.16869C107.819 7.52146 107.848 6.86734 107.815 6.2148C107.78 5.59196 107.682 5.16837 107.52 4.94067C107.22 4.8737 106.782 4.97583 106.206 5.24706C105.514 5.63065 104.849 6.0591 104.215 6.52957C103.373 7.12896 102.293 8.07437 100.975 9.36581C100.77 9.58905 100.401 9.97971 99.8687 10.5378C99.3366 11.0959 98.8296 11.6791 98.3476 12.2874C98.0929 12.6223 97.8274 13.0185 97.5512 13.4762H97.5171C97.0773 14.1283 96.6731 14.8028 96.3063 15.497C95.9264 16.2034 95.6135 16.9427 95.3718 17.7054C95.1487 18.3786 95.055 19.0865 95.0955 19.7933C95.1277 20.422 95.3991 21.016 95.8561 21.4575C96.1967 21.6035 96.5588 21.6956 96.9287 21.7304C97.3624 21.7714 97.7998 21.7482 98.2265 21.6618C98.8451 21.5373 99.4439 21.3318 100.007 21.0507C100.562 20.7794 101.19 20.4284 101.893 19.9975C102.595 19.5667 103.287 19.1023 103.968 18.6045C104.626 18.1249 105.256 17.6089 105.854 17.0592C106.353 16.6207 106.784 16.113 107.133 15.5523L107.237 15.3849C107.259 15.3384 107.293 15.2984 107.335 15.2689C107.378 15.2395 107.428 15.2217 107.479 15.2174C107.549 15.2174 107.583 15.2744 107.583 15.3849C107.647 15.5411 107.677 15.7088 107.67 15.8771C107.657 16.0325 107.628 16.1862 107.583 16.3359C107.514 16.5848 107.203 16.9587 106.649 17.4576C106.095 17.9566 105.455 18.4829 104.729 19.0365C104.002 19.5946 103.259 20.1153 102.498 20.5986C101.891 21 101.255 21.3575 100.595 21.6685C100.151 21.9271 99.6739 22.1269 99.1763 22.2628C98.4881 22.4494 97.7803 22.5578 97.0669 22.586C96.707 22.582 96.3482 22.5478 95.9942 22.4838C95.5859 22.4098 95.194 22.2658 94.8363 22.0586C94.4348 21.8268 94.0823 21.5216 93.7978 21.1595C93.4622 20.7283 93.2291 20.2289 93.1157 19.6978C93.0351 19.3227 92.9782 18.943 92.9452 18.561C92.9041 18.0042 92.939 17.4445 93.0492 16.8967C93.2013 16.1316 93.4392 15.3853 93.7586 14.6716C94.2092 13.6721 94.7593 12.7187 95.4008 11.8253C96.2679 10.678 97.2381 9.60943 98.2998 8.63247C98.7625 8.20385 99.2644 7.76798 99.8056 7.32485C100.373 6.85908 100.968 6.42583 101.586 6.02728C102.231 5.61303 102.901 5.23839 103.593 4.90551C104.3 4.56404 105.035 4.28013 105.789 4.05664L106.24 3.988C106.562 3.94287 106.89 3.95478 107.208 4.02316C107.474 4.09366 107.734 4.18435 107.986 4.29439C108.182 4.3848 108.337 4.46182 108.453 4.53214C108.575 4.61154 108.69 4.70238 108.794 4.80338C108.862 4.91723 108.944 5.04112 109.036 5.17674C109.082 5.29059 109.134 5.43291 109.192 5.60201C109.25 5.77272 109.291 5.94889 109.313 6.12774C109.374 6.87567 109.304 7.62847 109.105 8.35286C108.894 9.18952 108.599 10.0034 108.223 10.7823C107.85 11.5635 107.392 12.3032 106.859 12.989C106.396 13.6069 105.821 14.1363 105.164 14.5511C104.905 14.7254 104.616 14.8519 104.311 14.9244C104.005 14.9922 103.686 14.9689 103.394 14.8575C103.219 14.8173 103.057 14.738 102.919 14.6259C102.781 14.5138 102.672 14.3718 102.599 14.2112C102.542 14.0332 102.496 13.8521 102.461 13.6687C102.414 13.3754 102.419 13.0761 102.478 12.7847C102.53 12.5078 102.605 12.2356 102.703 11.971C102.909 11.4229 103.196 10.9077 103.556 10.4424C103.866 10.0573 104.102 9.77433 104.265 9.59351C104.533 9.32067 104.828 9.0755 105.147 8.86185C105.38 8.70918 105.633 8.58968 105.9 8.5069C105.93 8.51098 105.961 8.50508 105.987 8.49016C106.013 8.47617 106.042 8.47031 106.071 8.47341Z" fill="white"/>
<path d="M111.772 20.0728C111.405 20.3707 111.005 20.6268 110.579 20.8363C110.24 21.0034 109.879 21.1234 109.506 21.1929C109.215 21.2458 108.919 21.2744 108.623 21.2783C108.379 21.2788 108.136 21.2558 107.896 21.2096L107.62 21.1427C107.571 21.1486 107.522 21.136 107.482 21.1075C107.156 21.0368 106.85 20.898 106.583 20.7007C106.362 20.5302 106.179 20.3164 106.046 20.0728C105.921 19.8394 105.839 19.586 105.804 19.3244C105.77 19.0712 105.764 18.8153 105.787 18.5609C105.818 18.0993 105.929 17.6463 106.116 17.2215C106.286 16.8481 106.399 16.6037 106.443 16.4915C106.605 16.2191 106.853 15.8341 107.189 15.3362C107.554 14.8008 107.965 14.2967 108.416 13.8294C108.901 13.3202 109.447 12.8705 110.042 12.49C110.63 12.1092 111.31 11.8864 112.013 11.8437C112.391 11.8061 112.772 11.8637 113.121 12.0111C113.346 12.1086 113.547 12.2539 113.708 12.4364C113.759 12.4865 113.796 12.5493 113.815 12.6183C113.833 12.6872 113.832 12.7597 113.812 12.8282C113.766 12.942 113.662 12.9655 113.502 12.8968C113.307 12.8281 113.095 12.8222 112.896 12.8801C112.796 12.8993 112.697 12.9273 112.601 12.9638C112.671 12.942 112.637 12.9638 112.497 13.0157C112.265 13.1305 112.045 13.2679 111.841 13.4259C111.447 13.7272 111.082 14.0635 110.751 14.4305C110.227 15.0094 109.748 15.6249 109.315 16.2722C108.88 16.9059 108.487 17.5664 108.138 18.2495C107.916 18.6781 107.765 19.1387 107.69 19.614C107.62 20.1364 107.886 20.3976 108.485 20.3976C108.826 20.3976 109.218 20.1928 109.661 19.7831C110.115 19.3563 110.526 18.8876 110.889 18.3834C111.238 17.9088 111.556 17.4128 111.841 16.8984C112.095 16.4312 112.209 16.1299 112.182 15.9926C111.955 15.9637 111.737 15.8884 111.542 15.7716C111.437 15.7149 111.354 15.6252 111.307 15.5169C111.259 15.4085 111.25 15.2878 111.281 15.1738C111.305 14.8088 111.398 14.5471 111.559 14.3886C111.695 14.2449 111.864 14.1338 112.05 14.0638C112.188 14.0112 112.335 13.9884 112.482 13.9968C112.534 13.9983 112.587 14.0039 112.639 14.0136C112.916 14.02 113.188 14.0899 113.433 14.2178C113.728 14.3694 113.978 14.5925 114.16 14.8658C114.511 14.6954 114.875 14.5526 115.25 14.4388C115.601 14.3223 115.968 14.2591 116.339 14.2513C116.623 14.236 116.906 14.2823 117.17 14.3869C117.325 14.4551 117.462 14.5597 117.567 14.6916C117.653 14.823 117.696 14.9775 117.688 15.1337C117.68 15.1815 117.662 15.2275 117.637 15.2693C117.624 15.2993 117.602 15.3249 117.575 15.3431C117.547 15.3612 117.515 15.371 117.482 15.3714C117.412 15.3714 117.371 15.3496 117.361 15.3044C117.35 15.2592 117.337 15.2023 117.325 15.137C117.316 15.0768 117.292 15.0195 117.257 14.9696C117.232 14.9444 117.202 14.9251 117.169 14.9132C117.136 14.9013 117.101 14.8971 117.066 14.9009C116.985 14.904 116.903 14.8984 116.823 14.8842C116.729 14.8807 116.634 14.8978 116.547 14.9344C116.409 14.9813 116.184 15.06 115.865 15.1722C115.546 15.2843 115.064 15.4568 114.395 15.6828C114.368 15.7924 114.357 15.905 114.361 16.0177C114.312 16.3669 114.219 16.7088 114.085 17.0356C113.959 17.3471 113.809 17.6483 113.635 17.9364C113.473 18.1959 113.276 18.4856 113.046 18.802C112.666 19.2664 112.239 19.6921 111.772 20.0728ZM112.015 15.3011H112.209C112.288 15.3011 112.365 15.2784 112.431 15.2358C112.427 15.171 112.408 15.1079 112.375 15.0517C112.341 14.9956 112.295 14.9479 112.24 14.9126C112.161 14.8648 112.072 14.8361 111.98 14.8289C111.908 14.8245 111.836 14.8465 111.779 14.8906C111.722 14.9348 111.683 14.998 111.67 15.0684C111.67 15.2207 111.784 15.3011 112.015 15.3011Z" fill="white"/>
<path d="M112.707 25.5577C112.677 25.6348 112.654 25.7143 112.639 25.7955C112.633 25.833 112.617 25.8682 112.592 25.8976C112.568 25.927 112.536 25.9495 112.499 25.9629C112.431 25.9863 112.315 25.9294 112.158 25.7955C111.894 25.5748 111.679 25.3029 111.527 24.9968C111.341 24.6216 111.305 24.1917 111.425 23.7913C111.455 23.6048 111.508 23.4222 111.58 23.2472C111.66 23.0446 111.751 22.8169 111.873 22.5775C112.059 22.2142 112.358 21.6365 112.774 20.8446L114.138 18.2294C114.634 17.2784 115.135 16.3296 115.642 15.3831C116.149 14.4365 116.589 13.6061 116.962 12.8917C116.455 12.7109 116.15 12.4961 116.046 12.2471C115.968 12.0886 115.915 11.9192 115.889 11.7449C115.889 11.6544 115.947 11.6076 116.06 11.6076C116.173 11.6076 116.268 11.6879 116.268 11.8453V11.9826C116.354 12.0451 116.455 12.0859 116.561 12.1015C116.726 12.1365 116.894 12.1533 117.063 12.1517H117.271C117.339 12.0395 117.484 11.7901 117.702 11.405C117.92 11.0199 118.193 10.5846 118.516 10.0974C118.838 9.61014 119.198 9.09278 119.571 8.55199C119.935 8.0284 120.334 7.52894 120.765 7.05685C121.135 6.64457 121.547 6.26936 121.993 5.93675C122.32 5.67011 122.726 5.51498 123.151 5.49474C123.311 5.48483 123.472 5.51547 123.618 5.58375C123.763 5.65203 123.888 5.75569 123.981 5.88485C124.174 6.175 124.291 6.50739 124.322 6.85259C124.343 7.21611 124.326 7.5808 124.271 7.94088C124.206 8.37733 124.107 8.8083 123.976 9.23008C123.954 9.29872 123.913 9.3975 123.855 9.53647C123.797 9.67544 123.729 9.8144 123.649 9.96174C123.576 10.0954 123.489 10.2206 123.388 10.3351C123.351 10.3814 123.303 10.419 123.25 10.4453C123.196 10.4717 123.137 10.4861 123.077 10.4875C122.891 10.4875 122.777 10.3753 122.736 10.1526C122.748 10.0736 122.778 9.99818 122.823 9.9316C122.873 9.83671 122.952 9.75945 123.048 9.7106C123.24 9.28151 123.379 8.832 123.464 8.37117C123.556 7.90133 123.58 7.42102 123.534 6.94467C123.534 6.80906 123.498 6.74209 123.43 6.74209C123.362 6.74209 123.309 6.78729 123.205 6.8777C123.006 7.08478 122.826 7.30891 122.668 7.54742C122.413 7.89902 122.072 8.42586 121.645 9.12794C121.217 9.83003 120.681 10.7922 120.037 12.0144C120.449 12.0605 120.855 12.1515 121.247 12.2856C121.49 12.3701 121.722 12.4825 121.938 12.6205C122.073 12.705 122.186 12.8197 122.267 12.9554C122.311 13.0285 122.341 13.1092 122.354 13.1931V13.394C122.354 13.4844 122.297 13.5296 122.184 13.5296C122.069 13.5296 122.013 13.451 122.013 13.2919C122 13.2048 121.971 13.1205 121.93 13.0424C121.896 12.9855 121.797 12.9453 121.636 12.9236H121.065C120.755 12.9236 120.24 12.9453 119.53 12.9905L119.496 13.0592C118.958 13.9867 118.339 15.0733 117.637 16.319C116.936 17.5647 116.25 18.8042 115.579 20.0376C114.911 21.271 114.305 22.4034 113.763 23.4347C113.359 24.1632 113.007 24.9178 112.707 25.6933V25.5577ZM112.569 25.9997C112.573 25.9638 112.585 25.9291 112.603 25.8976L112.707 25.6933C112.648 25.7893 112.602 25.8923 112.569 25.9997Z" fill="white"/>
<path d="M117.758 25.5579C117.728 25.635 117.705 25.7146 117.689 25.7956C117.683 25.8332 117.667 25.8685 117.643 25.898C117.619 25.9274 117.587 25.9499 117.55 25.9631C117.481 25.9865 117.366 25.9296 117.209 25.7956C116.948 25.5747 116.736 25.3027 116.587 24.997C116.4 24.622 116.363 24.192 116.483 23.7915C116.514 23.6051 116.566 23.4227 116.638 23.2474C116.72 23.0448 116.809 22.8171 116.933 22.5777C117.117 22.2138 117.417 21.6362 117.832 20.8448C118.247 20.0534 118.702 19.1817 119.196 18.2295C119.693 17.2785 120.194 16.3298 120.7 15.3833C121.206 14.4367 121.644 13.6063 122.013 12.8919C121.505 12.7111 121.199 12.4962 121.096 12.2473C121.018 12.0888 120.965 11.9194 120.941 11.745C120.941 11.6546 120.999 11.6077 121.111 11.6077C121.224 11.6077 121.319 11.6881 121.319 11.8455V11.9828C121.406 12.0455 121.507 12.0863 121.614 12.1016C121.779 12.1368 121.947 12.1537 122.116 12.1519H122.322C122.392 12.0397 122.535 11.7902 122.755 11.4051C122.975 11.0201 123.244 10.5847 123.568 10.0975C123.892 9.61031 124.251 9.09296 124.622 8.55216C124.987 8.02936 125.386 7.52997 125.816 7.05702C126.187 6.64196 126.599 6.26345 127.046 5.92688C127.373 5.66021 127.78 5.50511 128.205 5.48487C128.366 5.47528 128.527 5.50606 128.672 5.57432C128.817 5.64257 128.942 5.74605 129.036 5.87498C129.228 6.16549 129.345 6.49769 129.377 6.84271C129.397 7.2063 129.379 7.57097 129.324 7.931C129.26 8.36742 129.161 8.7984 129.031 9.2202C129.007 9.28885 128.966 9.38763 128.909 9.5266C128.853 9.66556 128.782 9.80453 128.701 9.95187C128.63 10.0858 128.543 10.2111 128.442 10.3252C128.405 10.3716 128.357 10.4093 128.303 10.4357C128.25 10.462 128.19 10.4763 128.13 10.4776C127.946 10.4776 127.83 10.3654 127.789 10.1427C127.8 10.0638 127.83 9.9883 127.874 9.92173C127.925 9.82755 128.003 9.75054 128.099 9.70072C128.29 9.27465 128.43 8.82863 128.517 8.37134C128.608 7.90132 128.631 7.42113 128.585 6.94485C128.585 6.80923 128.551 6.74226 128.481 6.74226C128.411 6.74226 128.36 6.78746 128.256 6.87787C128.062 7.0816 127.885 7.30116 127.728 7.53419C127.473 7.8858 127.132 8.41264 126.704 9.11472C126.277 9.81681 125.74 10.779 125.095 12.0012C125.507 12.0471 125.913 12.1381 126.305 12.2724C126.549 12.3569 126.781 12.4693 126.998 12.6073C127.133 12.6921 127.245 12.8068 127.327 12.9421C127.37 13.0155 127.399 13.0961 127.412 13.1799V13.3942C127.412 13.4846 127.356 13.5298 127.242 13.5298C127.127 13.5298 127.071 13.4511 127.071 13.2921C127.056 13.2032 127.027 13.1173 126.984 13.0376C126.95 12.9807 126.851 12.9405 126.689 12.9187H126.12C125.808 12.9187 125.296 12.941 124.585 12.9857L124.551 13.0543C124.019 13.9819 123.401 15.0685 122.699 16.3142C121.996 17.5598 121.31 18.7994 120.64 20.0327C119.972 21.2661 119.367 22.3985 118.824 23.4299C118.421 24.1583 118.069 24.9129 117.77 25.6885L117.758 25.5579ZM117.62 25.9999C117.625 25.964 117.636 25.9292 117.654 25.8978L117.758 25.6935C117.699 25.7895 117.653 25.8924 117.62 25.9999Z" fill="white"/>
<path d="M132.183 17.8478C131.928 18.0978 131.576 18.4148 131.127 18.7988C130.678 19.1828 130.194 19.5578 129.674 19.9239C129.174 20.2768 128.641 20.5839 128.083 20.8414C127.615 21.0725 127.101 21.2 126.577 21.2148C126.531 21.215 126.484 21.2094 126.439 21.198C126.394 21.1867 126.348 21.1811 126.301 21.1813H126.267C125.436 21.0909 124.877 20.8587 124.589 20.4848C124.308 20.1309 124.155 19.6947 124.156 19.2458C124.132 18.693 124.232 18.1418 124.451 17.6318C124.647 17.2367 124.848 16.8449 125.056 16.4598C125.321 16.0019 125.622 15.5647 125.955 15.1522C126.39 14.5994 126.864 14.0774 127.374 13.5901C127.88 13.0996 128.437 12.6614 129.035 12.2825C129.611 11.9208 130.142 11.74 130.626 11.74C130.829 11.7493 131.028 11.7953 131.214 11.8756C131.19 11.8522 131.214 11.8589 131.265 11.8923L131.49 12.028C131.574 12.0791 131.655 12.135 131.733 12.1954C131.801 12.2523 131.847 12.2808 131.871 12.2808C132.212 12.6659 132.382 13.0398 132.382 13.4026C132.382 13.8781 132.169 14.3474 131.743 14.8106C131.282 15.3062 130.767 15.7509 130.208 16.1367C129.622 16.5475 129.009 16.9216 128.375 17.2568C127.753 17.5849 127.234 17.8394 126.818 18.0202C126.704 18.3149 126.617 18.5527 126.559 18.7335C126.498 18.9323 126.469 19.1389 126.472 19.3463C126.472 19.9579 126.772 20.2632 127.372 20.2621C127.545 20.233 127.714 20.1818 127.873 20.1097C128.219 19.9686 128.554 19.8042 128.876 19.6175C129.354 19.3426 129.817 19.0419 130.261 18.7167C130.844 18.2886 131.393 17.8173 131.903 17.307C131.927 17.307 132.007 17.2283 132.145 17.0692C132.254 16.9331 132.397 16.8279 132.561 16.7645C132.62 16.7673 132.677 16.7786 132.732 16.798C132.766 16.8102 132.795 16.8335 132.814 16.8639C132.833 16.8943 132.84 16.9301 132.836 16.9654C132.811 17.0941 132.758 17.2158 132.681 17.3221C132.547 17.5242 132.378 17.702 132.183 17.8478ZM127.824 16.3526C127.716 16.4994 127.618 16.6526 127.529 16.8114C127.449 16.9587 127.358 17.1128 127.27 17.2702C128.1 16.6585 128.774 16.1266 129.294 15.6746C129.722 15.3088 130.126 14.9174 130.505 14.5026C130.735 14.2599 130.927 13.9852 131.074 13.6872C131.151 13.5328 131.198 13.366 131.214 13.1949C131.205 13.1229 131.182 13.0533 131.144 12.9907C131.125 12.9596 131.114 12.9247 131.11 12.8886C131.132 12.8668 131.069 12.9003 130.919 12.9907C130.681 13.1429 130.453 13.3107 130.237 13.493C129.857 13.8255 129.501 14.1841 129.173 14.5662C128.683 15.1309 128.232 15.7278 127.824 16.3526Z" fill="white"/>
<path d="M139.343 17.8478C139.088 18.0978 138.736 18.4148 138.287 18.7988C137.838 19.1828 137.354 19.5578 136.834 19.9239C136.334 20.2768 135.801 20.5839 135.243 20.8414C134.775 21.0725 134.261 21.2 133.738 21.2148C133.691 21.215 133.645 21.2094 133.599 21.198C133.554 21.1867 133.508 21.1811 133.461 21.1813H133.427C132.597 21.0909 132.038 20.8587 131.749 20.4848C131.468 20.1309 131.315 19.6947 131.316 19.2458C131.292 18.693 131.392 18.1418 131.611 17.6318C131.807 17.2367 132.008 16.8449 132.216 16.4598C132.481 16.0019 132.782 15.5647 133.115 15.1522C133.55 14.5994 134.024 14.0774 134.534 13.5901C135.041 13.0996 135.597 12.6614 136.195 12.2825C136.77 11.9208 137.302 11.74 137.786 11.74C137.989 11.7493 138.188 11.7953 138.374 11.8756C138.35 11.8522 138.374 11.8589 138.425 11.8923L138.651 12.028C138.735 12.0791 138.815 12.135 138.893 12.1954C138.961 12.2523 139.007 12.2808 139.031 12.2808C139.372 12.6659 139.542 13.0398 139.542 13.4026C139.542 13.8781 139.329 14.3474 138.903 14.8106C138.442 15.3062 137.927 15.7509 137.368 16.1367C136.781 16.5471 136.169 16.9212 135.535 17.2568C134.913 17.5849 134.394 17.8394 133.978 18.0202C133.862 18.3149 133.777 18.5527 133.719 18.7335C133.658 18.9323 133.629 19.1389 133.632 19.3463C133.632 19.9579 133.932 20.2632 134.532 20.2621C134.705 20.2328 134.874 20.1816 135.034 20.1097C135.379 19.9686 135.714 19.8042 136.036 19.6175C136.515 19.3426 136.977 19.0419 137.421 18.7167C138.004 18.2886 138.553 17.8173 139.063 17.307C139.087 17.307 139.167 17.2283 139.305 17.0692C139.414 16.9331 139.558 16.8279 139.722 16.7645C139.78 16.7673 139.837 16.7786 139.892 16.798C139.926 16.8102 139.955 16.8335 139.974 16.8639C139.993 16.8943 140.001 16.9301 139.996 16.9654C139.972 17.0941 139.919 17.2158 139.841 17.3221C139.707 17.5242 139.539 17.702 139.343 17.8478ZM134.984 16.3526C134.876 16.4994 134.778 16.6526 134.689 16.8114C134.609 16.9587 134.519 17.1128 134.43 17.2702C135.261 16.6585 135.936 16.1266 136.454 15.6746C136.882 15.3088 137.286 14.9174 137.665 14.5026C137.895 14.2599 138.087 13.9852 138.234 13.6872C138.311 13.5328 138.359 13.366 138.374 13.1949C138.366 13.1229 138.342 13.0533 138.304 12.9907C138.285 12.9596 138.274 12.9247 138.27 12.8886C138.292 12.8668 138.229 12.9003 138.079 12.9907C137.841 13.1429 137.613 13.3107 137.397 13.493C137.017 13.8255 136.661 14.1841 136.333 14.5662C135.843 15.1309 135.392 15.7278 134.984 16.3526Z" fill="white"/>
</g>
<defs>
<clipPath id="clip0_640_17340">
<rect width="140" height="26" fill="white"/>
</clipPath>
</defs>
</svg>
