<svg width="125" height="20" viewBox="0 0 125 20" fill="none" xmlns="http://www.w3.org/2000/svg">
<mask id="mask0_771_16344" style="mask-type:luminance" maskUnits="userSpaceOnUse" x="0" y="0" width="125" height="20">
<path d="M124.998 0.401855H0V19.1024H124.998V0.401855Z" fill="white"/>
</mask>
<g mask="url(#mask0_771_16344)">
<path d="M29.9789 9.0689C28.5099 8.85533 28.0063 8.59921 28.0063 7.91606C28.0063 7.27564 28.5519 6.84871 29.4752 6.84871C30.4405 6.84871 30.9442 7.23296 31.0701 8.0869H33.6723C33.4204 5.69595 31.6997 4.84204 29.4332 4.84204C27.3348 4.84204 25.3622 5.90942 25.3622 8.0869C25.3622 10.1362 26.4115 10.9047 29.1395 11.3317C30.6084 11.5452 31.196 11.8441 31.196 12.5699C31.196 13.2957 30.6924 13.7226 29.6011 13.7226C28.384 13.7226 27.9224 13.1676 27.7964 12.2284H25.1523C25.2363 14.4911 26.8731 15.7293 29.6011 15.7293C32.2872 15.7293 33.924 14.5338 33.924 12.3137C33.966 10.0935 32.5391 9.45312 29.9789 9.0689Z" fill="white"/>
<path d="M40.0921 4.88477C37.5739 4.88477 35.6432 5.65328 35.4754 8.12963H38.1615C38.2874 7.23301 38.7911 6.97683 39.9243 6.97683C41.2253 6.97683 41.6031 7.65998 41.6031 8.89812V9.32504H40.4278C37.2801 9.32504 35.0977 10.2217 35.0977 12.6553C35.0977 14.8327 36.6506 15.772 38.5392 15.772C40.1341 15.772 41.0574 15.1316 41.645 14.2777V15.5159H44.4151V8.77002C44.3731 5.90945 42.6103 4.88477 40.0921 4.88477ZM41.5611 11.8868C41.5611 13.0396 40.5958 13.7227 39.3366 13.7227C38.2874 13.7227 37.8677 13.2104 37.8677 12.4845C37.8677 11.3745 38.833 10.9902 40.4698 10.9902H41.5611V11.8868Z" fill="white"/>
<path d="M48.3198 0.401855H45.5078V15.5586H48.3198V0.401855Z" fill="white"/>
<path d="M54.7414 4.88477C51.7615 4.88477 49.4531 7.01953 49.4531 10.307V10.4778C49.4531 13.808 51.7195 15.772 54.7833 15.772C57.5953 15.772 59.358 14.5339 59.6938 12.2711H57.0078C56.8399 13.1676 56.1683 13.7227 54.8673 13.7227C53.3144 13.7227 52.391 12.7407 52.3071 10.9902H59.6938V10.179C59.7358 6.46449 57.3854 4.88477 54.7414 4.88477ZM52.391 9.19694C52.6009 7.70266 53.4823 6.84874 54.7414 6.84874C56.0844 6.84874 56.8818 7.61723 56.9658 9.19694H52.391Z" fill="white"/>
<path d="M65.6547 9.0689C64.1858 8.85533 63.6821 8.59921 63.6821 7.91606C63.6821 7.27564 64.2277 6.84871 65.1511 6.84871C66.1163 6.84871 66.62 7.23296 66.746 8.0869H69.3481C69.0962 5.69595 67.3754 4.84204 65.1091 4.84204C63.0106 4.84204 61.038 5.90942 61.038 8.0869C61.038 10.1362 62.0873 10.9047 64.8153 11.3317C66.2842 11.5452 66.8718 11.8441 66.8718 12.5699C66.8718 13.2957 66.3682 13.7226 65.2769 13.7226C64.0598 13.7226 63.5981 13.1676 63.4723 12.2284H60.8281C60.912 14.4911 62.5489 15.7293 65.2769 15.7293C67.963 15.7293 69.5999 14.5338 69.5999 12.3137C69.6418 10.0935 68.2568 9.45312 65.6547 9.0689Z" fill="white"/>
<path d="M76.9429 4.88485C75.2221 4.88485 74.1309 5.73876 73.6269 6.76344V0.401855H70.7734V15.5586H73.6269V9.53863C73.6269 8.00161 74.5501 7.23309 75.7677 7.23309C77.0268 7.23309 77.5717 7.91618 77.5717 9.32513V15.5586H80.4261V8.89821C80.3842 6.12301 78.9574 4.88485 76.9429 4.88485Z" fill="white"/>
<path d="M86.5524 4.88477C84.0349 4.88477 82.1043 5.65328 81.9359 8.12963H84.6226C84.7483 7.23301 85.2514 6.97683 86.3847 6.97683C87.6858 6.97683 88.0638 7.65998 88.0638 8.89812V9.32504H86.8893C83.7407 9.32504 81.5586 10.2217 81.5586 12.6553C81.5586 14.8327 83.1112 15.772 84.9999 15.772C86.5951 15.772 87.5181 15.1316 88.1058 14.2777V15.5159H90.8755V8.77002C90.8344 5.90945 89.0288 4.88477 86.5524 4.88477ZM88.0219 11.8868C88.0219 13.0396 87.057 13.7227 85.7971 13.7227C84.7483 13.7227 84.3284 13.2104 84.3284 12.4845C84.3284 11.3745 85.2941 10.9902 86.9305 10.9902H88.0219V11.8868Z" fill="white"/>
<path d="M98.1386 4.88477C96.4184 4.88477 95.3269 5.73867 94.8231 6.76336V5.09824H91.9688V15.5159H94.8231V9.53854C94.8231 8.00153 95.7461 7.23301 96.9634 7.23301C98.2225 7.23301 98.7682 7.91611 98.7682 9.32504V15.5586H101.623V8.89812C101.58 6.12293 100.153 4.88477 98.1386 4.88477Z" fill="white"/>
<path d="M110.477 6.67805C109.889 5.61067 108.882 4.88485 107.245 4.88485C104.685 4.88485 102.754 6.89154 102.754 10.3071V10.4779C102.754 13.9362 104.726 15.7721 107.203 15.7721C108.714 15.7721 109.973 14.8755 110.477 13.8082V15.5586H113.289V0.401855H110.477V6.67805ZM110.56 10.3925C110.56 12.4846 109.511 13.5093 108.043 13.5093C106.615 13.5093 105.649 12.4846 105.649 10.4352V10.2644C105.649 8.17238 106.531 7.10499 108.127 7.10499C109.679 7.10499 110.56 8.17238 110.56 10.2217V10.3925Z" fill="white"/>
<path d="M122.27 5.14111L119.961 11.3746L117.485 5.14111H114.422L118.493 14.4914L116.688 19.1024H119.458L124.998 5.14111H122.27Z" fill="white"/>
<mask id="mask1_771_16344" style="mask-type:luminance" maskUnits="userSpaceOnUse" x="0" y="0" width="20" height="20">
<path d="M19.0542 0.401855H0.761719V19.1024H19.0542V0.401855Z" fill="white"/>
</mask>
<g mask="url(#mask1_771_16344)">
<path d="M5.65043 0.401855C4.9714 0.401855 4.63133 1.24115 5.11149 1.73202L17.7529 14.6555C18.2331 15.1464 19.0541 14.7987 19.0541 14.1045V1.18104C19.0541 0.750711 18.7128 0.401855 18.2919 0.401855H5.65043Z" fill="white"/>
<path d="M9.69511 17.3256C10.0552 17.6937 10.671 17.4329 10.671 16.9123V9.55729C10.671 9.23455 10.4151 8.9729 10.0994 8.9729H2.90481C2.39554 8.9729 2.1405 9.60241 2.50061 9.9705L9.69511 17.3256Z" fill="white"/>
<path d="M4.68515 18.4373C4.92522 18.6827 5.33571 18.5089 5.33571 18.1618V14.8168C5.33571 14.6017 5.16509 14.4272 4.95462 14.4272H1.68264C1.34312 14.4272 1.17309 14.8469 1.41316 15.0924L4.68515 18.4373Z" fill="white"/>
</g>
</g>
</svg>
